<?xml version="1.0" encoding="UTF-8" standalone="no"?>
<svg
   xmlns:dc="http://purl.org/dc/elements/1.1/"
   xmlns:cc="http://creativecommons.org/ns#"
   xmlns:rdf="http://www.w3.org/1999/02/22-rdf-syntax-ns#"
   xmlns:svg="http://www.w3.org/2000/svg"
   xmlns="http://www.w3.org/2000/svg"
   xmlns:sodipodi="http://sodipodi.sourceforge.net/DTD/sodipodi-0.dtd"
   xmlns:inkscape="http://www.inkscape.org/namespaces/inkscape"
   width="844.75281mm"
   height="509.90002mm"
   viewBox="0 0 844.75282 509.90004"
   version="1.1"
   id="svg8"
   inkscape:version="1.0.1 (3bc2e813f5, 2020-09-07)"
   sodipodi:docname="drawing.svg">
  <defs
     id="defs2">
    <rect
       x="575.9187"
       y="1298.8041"
       width="238.71893"
       height="172.49886"
       id="rect1139" />
    <rect
       x="323.45901"
       y="29.588322"
       width="172.09012"
       height="303.30371"
       id="rect985" />
    <rect
       x="336.99911"
       y="89.913857"
       width="156.66"
       height="245.10645"
       id="rect979" />
  </defs>
  <sodipodi:namedview
     id="base"
     pagecolor="#1c1c1c"
     bordercolor="#666666"
     borderopacity="1.0"
     inkscape:pageopacity="1"
     inkscape:pageshadow="2"
     inkscape:zoom="0.175"
     inkscape:cx="-386.67809"
     inkscape:cy="1502.9555"
     inkscape:document-units="mm"
     inkscape:current-layer="g1125"
     inkscape:document-rotation="0"
     showgrid="false"
     fit-margin-top="0"
     fit-margin-left="0"
     fit-margin-right="0"
     fit-margin-bottom="0"
     inkscape:window-width="2560"
     inkscape:window-height="1413"
     inkscape:window-x="0"
     inkscape:window-y="-10"
     inkscape:window-maximized="1" />
  <metadata
     id="metadata5">
    <rdf:RDF>
      <cc:Work
         rdf:about="">
        <dc:format>image/svg+xml</dc:format>
        <dc:type
           rdf:resource="http://purl.org/dc/dcmitype/StillImage" />
        <dc:title></dc:title>
      </cc:Work>
    </rdf:RDF>
  </metadata>
  <g
     inkscape:label="Layer 1"
     inkscape:groupmode="layer"
     id="layer1"
     transform="translate(-283.48077,76.549461)">
    <rect
       style="fill:#000000;stroke-width:0.999999;stroke-linecap:round;stroke-dashoffset:9.97795"
       id="rect1143"
       width="255.12595"
       height="143.50835"
       x="578.29419"
       y="-76.549461"
       inkscape:export-xdpi="88.496597"
       inkscape:export-ydpi="88.496597" />
    <rect
       style="fill:#000000;stroke-width:0.999999;stroke-linecap:round;stroke-dashoffset:9.97795"
       id="rect1113"
       width="255.12595"
       height="143.50835"
       x="283.48077"
       y="-76.549461"
       inkscape:export-xdpi="88.496597"
       inkscape:export-ydpi="88.496597" />
    <rect
       style="fill:#000000;stroke-width:0.999999;stroke-linecap:round;stroke-dashoffset:9.97795"
       id="rect1145"
       width="255.12595"
       height="143.50835"
       x="873.10767"
       y="-76.549461"
       inkscape:export-xdpi="88.496597"
       inkscape:export-ydpi="88.496597" />
    <rect
       style="fill:#000000;stroke-width:0.999999;stroke-linecap:round;stroke-dashoffset:9.97795"
       id="rect1147"
       width="255.12595"
       height="143.50835"
       x="283.48077"
       y="106.64639"
       inkscape:export-xdpi="88.496597"
       inkscape:export-ydpi="88.496597" />
    <rect
       style="fill:#000000;stroke-width:0.999999;stroke-linecap:round;stroke-dashoffset:9.97795"
       id="rect1149"
       width="255.12595"
       height="143.50835"
       x="578.29419"
       y="106.64639"
       inkscape:export-xdpi="88.496597"
       inkscape:export-ydpi="88.496597" />
    <rect
       style="fill:#000000;stroke-width:0.999999;stroke-linecap:round;stroke-dashoffset:9.97795"
       id="rect1151"
       width="255.12595"
       height="143.50835"
       x="873.10767"
       y="106.64639"
       inkscape:export-xdpi="88.496597"
       inkscape:export-ydpi="88.496597" />
    <rect
       style="fill:#000000;stroke-width:0.999999;stroke-linecap:round;stroke-dashoffset:9.97795"
       id="rect1153"
       width="255.12595"
       height="143.50835"
       x="283.48077"
       y="289.84222"
       inkscape:export-xdpi="88.49659"
       inkscape:export-ydpi="88.49659" />
    <rect
       style="fill:#000000;stroke-width:0.999999;stroke-linecap:round;stroke-dashoffset:9.97795"
       id="rect1155"
       width="255.12595"
       height="143.50835"
       x="578.29419"
       y="289.84222"
       inkscape:export-xdpi="88.49659"
       inkscape:export-ydpi="88.49659" />
    <text
       xml:space="preserve"
       style="font-size:30.3649px;line-height:1.25;font-family:FreeSans;-inkscape-font-specification:FreeSans;text-align:center;letter-spacing:1.89781px;text-anchor:middle;fill:#ffffff;stroke-width:1;stroke-linecap:round;stroke-dashoffset:9.97795"
       x="706.57068"
       y="169.29109"
       id="text835"
       inkscape:export-xdpi="88.496597"
       inkscape:export-ydpi="88.496597"><tspan
         sodipodi:role="line"
         id="tspan833"
         x="706.57068"
         y="169.29109"
         style="font-style:normal;font-variant:normal;font-weight:normal;font-stretch:normal;font-family:ChunkFive;-inkscape-font-specification:ChunkFive;fill:#ffffff;stroke-width:1">BON</tspan><tspan
         sodipodi:role="line"
         x="707.51959"
         y="208.76546"
         style="font-style:normal;font-variant:normal;font-weight:normal;font-stretch:normal;font-family:ChunkFive;-inkscape-font-specification:ChunkFive;fill:#ffffff;stroke-width:1"
         id="tspan1033">VOYAGE!</tspan></text>
    <text
       xml:space="preserve"
       id="text977"
       style="font-style:normal;font-variant:normal;font-weight:normal;font-stretch:normal;font-size:12.7px;line-height:1.25;font-family:ChunkFive;-inkscape-font-specification:ChunkFive;text-align:center;white-space:pre;shape-inside:url(#rect979);fill:#ffffff;stroke-width:1;stroke-linecap:round;stroke-dashoffset:2.64"
       transform="translate(-8.584076,-33.518737)" />
    <g
       id="g1125"
       transform="matrix(1.7579768,0,0,1.7579768,-60.480419,-139.15611)"
       style="stroke-width:0.568835"
       inkscape:export-xdpi="88.496597"
       inkscape:export-ydpi="88.496597">
      <path
         style="fill:#ffffff;stroke-width:0.568835"
         d="m 401.33944,93.740069 c -14.223,-2.166204 -27.66332,-10.290481 -27.66332,-16.721653 0,-3.211516 2.05098,-4.804131 7.12527,-5.532869 2.27723,-0.327046 2.292,-0.325978 2.11606,0.152302 -0.0974,0.264909 -0.16618,0.990952 -0.15272,1.613437 0.0515,2.385082 2.96274,5.318483 7.50938,7.566631 4.4191,2.185086 7.34808,2.922083 12.39514,3.118885 4.04663,0.157792 6.12775,-0.218132 7.91191,-1.429172 1.78663,-1.212732 2.06038,-1.754243 2.05052,-4.056314 -0.01,-2.25734 -0.10465,-2.210802 1.96823,-0.964302 3.22362,1.938499 5.32051,5.041651 5.29423,7.834872 -0.0258,2.738129 -1.66883,5.264373 -4.3552,6.696197 -2.61888,1.395848 -4.24509,1.711558 -9.13771,1.773988 -2.39553,0.03052 -4.67333,0.0071 -5.06179,-0.05197 z m -1.88347,-15.005362 c -5.81402,-1.099546 -12.60965,-4.590742 -14.75748,-7.581545 -0.41485,-0.577673 -0.87536,-1.003854 -1.02334,-0.947075 -0.36115,0.13859 2.79807,-8.630767 3.42799,-9.515411 0.27293,-0.383292 0.6938,-0.80263 0.93525,-0.931859 0.75002,-0.40139 2.18143,-0.25562 3.49511,0.355929 1.89681,0.883017 2.80543,0.776879 4.35019,-0.508142 0.44333,-0.368787 0.96626,-0.553604 1.56639,-0.553604 1.75447,0 9.09564,2.923382 11.0123,4.385286 0.43668,0.33307 0.94836,0.939378 1.13705,1.347344 0.61287,1.325089 2.68177,10.77206 2.42375,11.067348 -0.1292,0.14788 -0.43157,0.601014 -0.67191,1.006969 -0.27534,0.465066 -0.94511,0.987455 -1.81064,1.412212 -1.30657,0.641198 -1.54614,0.676568 -4.90515,0.724174 -2.15957,0.03061 -4.17171,-0.07101 -5.17951,-0.261626 z"
         id="path1029"
         inkscape:export-xdpi="88.496597"
         inkscape:export-ydpi="88.496597" />
      <text
         xml:space="preserve"
         style="font-size:12.7px;line-height:1.25;font-family:FreeSans;-inkscape-font-specification:FreeSans;text-align:center;letter-spacing:0.79375px;text-anchor:middle;fill:#ffffff;stroke-width:0.568835;stroke-linecap:round;stroke-dashoffset:9.97795"
         x="463.6203"
         y="80.874237"
         id="text1039"
         inkscape:export-xdpi="88.496597"
         inkscape:export-ydpi="88.496597"><tspan
           sodipodi:role="line"
           x="464.01718"
           y="80.874237"
           style="font-style:normal;font-variant:normal;font-weight:normal;font-stretch:normal;font-family:ChunkFive;-inkscape-font-specification:ChunkFive;fill:#ffffff;stroke-width:0.568835"
           id="tspan1037">2009-2021</tspan></text>
    </g>
    <g
       id="g1130"
       transform="matrix(2.0167965,0,0,2.0167965,145.49158,-302.25943)"
       style="stroke-width:0.495835"
       inkscape:export-xdpi="88.496597"
       inkscape:export-ydpi="88.496597">
      <path
         style="fill:#ffffff;stroke-width:0.495835"
         d="m 400.66488,164.19451 c -7.50703,-1.25679 -13.28052,-7.28871 -14.13333,-14.76595 -0.52801,-4.6295 0.59866,-8.81164 3.35301,-12.44624 3.18303,-4.20028 7.86635,-6.43833 13.50522,-6.45385 3.0166,-0.009 6.0022,0.77624 8.51906,2.2386 1.74108,1.01162 4.34659,3.53746 5.60556,5.43418 1.07679,1.62225 2.36354,4.86088 2.37398,5.97509 l 0.006,0.6417 h -11.70384 -11.70386 l 0.082,2.63809 0.082,2.63808 3.85019,0.0695 c 2.1176,0.0383 4.13894,0.13692 4.49187,0.21933 l 0.64171,0.14982 v 6.80369 6.80369 l -0.89126,0.17824 c -1.0931,0.21863 -2.24014,0.18375 -4.07834,-0.12399 z m 11.52915,-8.39632 v -5.56138 h 3.66006 c 2.01303,0 3.73538,0.0753 3.82744,0.1674 0.58776,0.58775 -2.04764,6.20119 -3.7549,7.998 -1.43984,1.51534 -3.12562,2.95735 -3.45732,2.95735 -0.16749,0 -0.27528,-2.17759 -0.27528,-5.56137 z"
         id="path1003"
         sodipodi:nodetypes="csssssccccccsscccsccscsssss" />
      <text
         xml:space="preserve"
         style="font-style:normal;font-variant:normal;font-weight:normal;font-stretch:normal;font-size:12.7px;line-height:1.25;font-family:ChunkFive;-inkscape-font-specification:ChunkFive;text-align:center;text-anchor:middle;fill:#ffffff;stroke-width:0.495835;stroke-linecap:round;stroke-dashoffset:9.97795"
         x="445.36407"
         y="151.93839"
         id="text1045"><tspan
           sodipodi:role="line"
           id="tspan1043"
           x="445.36407"
           y="151.93839"
           style="stroke-width:0.495835">2021-</tspan></text>
    </g>
    <text
       xml:space="preserve"
       style="font-size:25.7461px;line-height:1.25;font-family:FreeSans;-inkscape-font-specification:FreeSans;text-align:center;letter-spacing:1.60913px;text-anchor:middle;fill:#ffffff;stroke-width:1;stroke-linecap:round;stroke-dashoffset:9.97795"
       x="410.91498"
       y="351.87723"
       id="text1059"
       inkscape:export-xdpi="88.49659"
       inkscape:export-ydpi="88.49659"><tspan
         sodipodi:role="line"
         x="410.91498"
         y="351.87723"
         style="font-style:normal;font-variant:normal;font-weight:normal;font-stretch:normal;font-family:ChunkFive;-inkscape-font-specification:ChunkFive;fill:#ffffff;stroke-width:1"
         id="tspan1057">oh, one</tspan><tspan
         sodipodi:role="line"
         x="411.71954"
         y="385.34717"
         style="font-style:normal;font-variant:normal;font-weight:normal;font-stretch:normal;font-family:ChunkFive;-inkscape-font-specification:ChunkFive;fill:#ffffff;stroke-width:1"
         id="tspan1063">more thing</tspan></text>
    <g
       id="g1163"
       transform="matrix(1.6293048,0,0,1.6293048,-261.3817,-121.04077)"
       style="stroke-width:0.613758"
       inkscape:export-xdpi="88.496597"
       inkscape:export-ydpi="88.496597">
      <g
         id="g1135"
         transform="translate(-11.445348,-37.292341)"
         style="stroke-width:0.613758">
        <text
           xml:space="preserve"
           style="font-style:normal;font-variant:normal;font-weight:normal;font-stretch:normal;font-size:12.7px;line-height:1.25;font-family:ChunkFive;-inkscape-font-specification:ChunkFive;text-align:center;text-anchor:middle;fill:#ffffff;stroke-width:0.613758;stroke-linecap:round;stroke-dashoffset:9.97795"
           x="460.07071"
           y="225.52206"
           id="text1079"><tspan
             sodipodi:role="line"
             id="tspan1077"
             x="460.07071"
             y="225.52206"
             style="stroke-width:0.613758">FOREVER</tspan></text>
        <path
           style="fill:#ffffff;stroke-width:0.613758"
           d="m 366.63802,239.60499 -0.83964,-0.18095 -0.77505,-0.28461 -0.77505,-0.28461 -0.67867,-0.36251 -0.67866,-0.3625 -0.52013,-0.32834 -0.52011,-0.32835 -0.95097,-0.90331 -0.95095,-0.90332 -0.66317,-0.95931 -0.66318,-0.95931 -0.4428,-0.94282 -0.4428,-0.94281 -0.27617,-1.0334 -0.27617,-1.0334 -0.0677,-1.5501 -0.0677,-1.55009 0.21723,-1.16257 0.21724,-1.16257 0.45872,-1.16257 0.45873,-1.16257 0.68802,-1.04223 0.68801,-1.04224 0.95393,-0.90613 0.95394,-0.90614 0.57126,-0.38979 0.57129,-0.38978 0.64586,-0.35901 0.64588,-0.359 0.82472,-0.31158 0.82473,-0.31158 0.91913,-0.2033 0.91913,-0.20331 1.65409,-0.005 1.6541,-0.005 0.34811,0.25888 0.3481,0.25888 0.0385,0.51047 0.0385,0.51047 -0.27808,0.25166 -0.27809,0.25166 -1.698,0.01 -1.698,0.01 -0.90423,0.23259 -0.90421,0.23259 -0.79278,0.35653 -0.79276,0.35652 -0.82191,0.55422 -0.82192,0.55422 -0.8023,0.83302 -0.80231,0.83301 -0.51502,0.85573 -0.51502,0.85573 -0.41594,1.22716 -0.41593,1.22716 -0.0577,1.56003 -0.0577,1.56002 0.27137,1.08804 0.27137,1.08806 0.57723,1.16257 0.57723,1.16257 0.34328,0.38753 0.34326,0.38752 0.31663,0.41039 0.31662,0.41039 0.67003,0.51648 0.67003,0.51648 0.77504,0.46633 0.77505,0.46634 1.03119,0.32575 1.03118,0.32575 1.02229,0.12819 1.0223,0.12818 1.23261,-0.14717 1.2326,-0.14717 0.91209,-0.32707 0.91208,-0.32708 0.86449,-0.51127 0.86449,-0.51127 0.86063,-0.78861 0.86063,-0.7886 0.51878,-0.70225 0.51878,-0.70225 0.44363,-0.9602 0.44365,-0.96021 0.23683,-1.08375 0.23683,-1.08377 -0.0718,-0.0717 -0.0718,-0.0718 h -5.06176 -5.06176 l -0.43892,-0.29536 -0.43892,-0.29537 -0.16796,-0.50964 -0.16794,-0.50966 0.0791,-0.31502 0.0791,-0.31504 1.88666,-3.11042 1.88668,-3.11042 0.77012,-1.29174 0.77013,-1.29174 2.19601,-3.59321 2.196,-3.59322 -0.48162,-1.18624 -0.48161,-1.18625 -0.40707,-0.82276 -0.40706,-0.82276 -1.4855,-0.64027 -1.48551,-0.64027 -0.22606,-0.20396 -0.22605,-0.20397 v -0.36751 -0.36749 l 0.25834,-0.25835 0.25835,-0.25835 0.35522,-0.003 0.35524,-0.003 4.25348,0.007 4.25349,0.007 0.17074,0.14171 0.17074,0.1417 v 0.35589 0.35589 l -0.16147,0.12768 -0.16146,0.12767 -2.0345,0.67391 -2.0345,0.67391 v 0.085 0.085 l 0.67449,1.58352 0.6745,1.58352 h 11.00859 11.0086 l 0.31964,0.29064 0.31965,0.29065 0.86679,2.32514 0.8668,2.32514 1.54824,4.069 1.54825,4.06899 0.36066,0.96881 0.36065,0.96881 0.52875,1.40687 0.52874,1.40688 v 0.22268 0.22268 l -0.26772,0.34035 -0.26772,0.34036 -0.47503,-0.002 -0.47503,-0.002 -0.14214,-0.0949 -0.14213,-0.0949 -0.15073,-0.28631 -0.15075,-0.28631 -1.68701,-4.49314 -1.68702,-4.49316 -0.10586,-0.10939 -0.10587,-0.10938 -0.75608,0.48215 -0.75609,0.48214 -0.38752,0.3262 -0.38753,0.3262 0.0355,0.11798 0.0355,0.11798 -0.12435,-0.0768 -0.12436,-0.0768 -0.66047,0.81001 -0.66049,0.81 -0.57653,1.16258 -0.57653,1.16256 -0.2716,1.08901 -0.27161,1.089 0.0654,1.49449 0.0654,1.49448 0.2088,0.77506 0.20879,0.77504 0.57026,1.16257 0.57026,1.16257 0.99728,1.07324 0.99728,1.07323 0.76056,0.5165 0.76056,0.51648 0.89454,0.38066 0.89454,0.38066 0.87789,0.21024 0.87789,0.21024 h 1.35633 1.35633 l 0.87076,-0.20858 0.87076,-0.20859 0.80851,-0.33864 0.80851,-0.33865 0.85506,-0.56641 0.85506,-0.56642 0.8242,-0.87426 0.82421,-0.87427 0.41219,-0.62316 0.41219,-0.62316 0.38504,-0.92589 0.38504,-0.92588 0.22105,-1.0927 0.22105,-1.0927 -0.0709,-1.29703 -0.0709,-1.29703 -0.28283,-0.90422 -0.28284,-0.90422 -0.33697,-0.71047 -0.33697,-0.71045 -0.56282,-0.8043 -0.5628,-0.80429 -0.85563,-0.78402 -0.85561,-0.78402 -0.74854,-0.45471 -0.74855,-0.45471 -1.06533,-0.38881 -1.06535,-0.3888 -1.48721,-0.13751 -1.48721,-0.13751 -0.29065,-0.312 -0.29064,-0.31199 v -0.32423 -0.32423 l 0.13137,-0.24547 0.13137,-0.24546 0.52006,-0.14004 0.52006,-0.14004 1.21407,0.13538 1.21408,0.13538 1.07321,0.33676 1.07322,0.33675 0.88611,0.44211 0.88611,0.44212 0.5994,0.40886 0.5994,0.40886 0.82208,0.78245 0.8221,0.78245 0.54939,0.77505 0.5494,0.77505 0.40497,0.73633 0.40497,0.73632 0.37801,1.13671 0.37802,1.1367 0.15652,1.08815 0.15652,1.08815 -0.0775,1.23699 -0.0775,1.23699 -0.25489,0.98772 -0.25487,0.98773 -0.37743,0.88695 -0.37744,0.88695 -0.6177,0.96717 -0.6177,0.96716 -0.95227,0.94011 -0.95227,0.94011 -1.06461,0.68901 -1.06461,0.689 -1.0334,0.39399 -1.0334,0.39397 -0.99565,0.20516 -0.99566,0.20516 h -1.48251 -1.4825 l -0.88238,-0.18561 -0.88239,-0.18561 -0.96679,-0.34566 -0.9668,-0.34564 -1.0615,-0.63745 -1.06149,-0.63744 -1.03014,-0.96908 -1.03014,-0.96909 -0.60642,-0.92047 -0.60641,-0.92049 -0.43668,-0.95822 -0.43668,-0.95822 -0.28839,-1.0536 -0.2884,-1.05361 0.006,-1.93762 0.006,-1.93762 0.29536,-1.09791 0.29536,-1.09792 0.42929,-0.92914 0.42929,-0.92915 0.49624,-0.74767 0.49625,-0.74766 0.75376,-0.8058 0.75376,-0.80579 0.86092,-0.63415 0.86092,-0.63417 0.549,-0.27676 0.54899,-0.27676 v -0.11551 -0.11551 l -0.40605,-1.07672 -0.40605,-1.07673 -0.13004,-0.16576 -0.13003,-0.16578 -0.0955,0.0366 -0.0955,0.0366 -1.53206,1.75175 -1.53207,1.75176 -1.60655,1.80054 -1.60654,1.80054 -0.39566,0.4564 -0.39566,0.4564 -0.71046,0.81834 -0.71046,0.81833 -0.42064,0.46912 -0.42063,0.46912 -0.90986,1.03476 -0.90985,1.03474 -0.0299,0.96745 -0.0299,0.96746 -0.37652,0.68707 -0.37652,0.68705 -0.43034,0.37784 -0.43033,0.37784 -0.54539,0.29081 -0.5454,0.29081 -1.09799,6e-5 -1.09799,5e-5 -0.61141,-0.35883 -0.61143,-0.35885 -0.44913,-0.46246 -0.44913,-0.46246 -0.21645,-0.56675 -0.21645,-0.56676 h -0.56778 -0.56779 l -0.0444,0.16147 -0.0444,0.16146 -0.14582,0.9421 -0.14582,0.9421 -0.40359,1.06011 -0.40357,1.0601 -0.59698,1.01766 -0.59698,1.01765 -1.04207,1.06058 -1.04207,1.06058 -0.76637,0.51987 -0.76637,0.51987 -0.77505,0.38714 -0.77504,0.38713 -0.83964,0.26983 -0.83963,0.26983 -0.76648,0.13576 -0.76648,0.13576 -1.55866,-0.0102 -1.55867,-0.0102 z m 20.48618,-10.41722 0.41555,-0.28474 0.20603,-0.34878 0.20603,-0.34876 -4.9e-4,-0.49677 -4.9e-4,-0.49676 -0.25215,-0.41356 -0.25216,-0.41354 -0.38682,-0.20003 -0.38676,-0.20004 h -0.46494 -0.46494 l -0.36863,0.19064 -0.36864,0.19063 -0.27082,0.43819 -0.27082,0.4382 v 0.4862 0.48621 l 0.27016,0.43712 0.27016,0.43712 0.34341,0.18653 0.34342,0.18653 0.50871,0.005 0.50871,0.005 0.41554,-0.28472 z m -4.45991,-2.9062 0.15471,-0.4688 0.49036,-0.53198 0.49036,-0.53197 -2.38941,-5.55009 -2.38942,-5.5501 -0.13288,-0.35523 -0.13287,-0.35523 h -0.10469 -0.10467 l -1.38126,2.27153 -1.38124,2.27154 0.25092,0.17576 0.25093,0.17575 0.63927,0.50533 0.63929,0.50532 0.72135,0.82573 0.72135,0.82575 0.4776,0.75109 0.47761,0.7511 0.37821,0.8888 0.37822,0.8888 v 0.27537 0.27536 l -0.37759,0.37758 -0.37758,0.37759 h -0.23954 -0.23955 l -0.27747,-0.19435 -0.27746,-0.19434 -0.68063,-1.38677 -0.68064,-1.38676 -1.04055,-1.0435 -1.04056,-1.0435 -0.40197,-0.2779 -0.40197,-0.27791 -1.45391,2.41811 -1.45391,2.41811 -0.70264,1.14722 -0.70262,1.14722 0.0687,0.17902 0.0687,0.17902 6.00137,-0.007 6.00137,-0.007 0.15472,-0.4688 z m 8.26658,-3.65532 1.97928,-2.26055 0.0816,-0.0646 0.0816,-0.0646 0.95918,-1.08831 0.95918,-1.0883 2.56307,-2.91611 2.56307,-2.9161 0.0671,-0.16312 0.0672,-0.16312 -0.15944,-0.19211 -0.15945,-0.19212 h -9.73682 -9.73686 l -0.003,0.0969 -0.003,0.0969 2.61739,6.10349 2.61737,6.10349 h 0.60959 0.60959 l 0.69773,0.26106 0.69774,0.26105 0.2342,0.25879 0.23419,0.25879 0.0895,-0.0354 0.0895,-0.0354 z m 13.69382,-14.42037 -0.26772,-0.34035 v -0.23485 -0.23485 l 0.13932,-0.29673 0.13932,-0.29672 0.40058,-0.25834 0.40058,-0.25835 0.12215,-0.37148 0.12214,-0.37147 -0.20925,-0.43881 -0.20925,-0.43879 -0.33203,-0.12624 -0.33204,-0.12625 h -2.17993 -2.17994 l -0.0725,0.11733 -0.0725,0.11732 0.45582,1.19443 0.45581,1.19445 -0.13819,0.41874 -0.1382,0.41876 -0.36205,0.14996 -0.36205,0.14996 -0.35022,-0.0879 -0.35021,-0.0879 -0.17484,-0.27478 -0.17484,-0.27477 -0.68065,-1.80845 -0.68063,-1.80845 -0.003,-0.43654 -0.003,-0.43656 0.35597,-0.3062 0.35597,-0.3062 h 3.19872 3.19871 l 0.67702,0.20106 0.67701,0.20105 0.51835,0.4683 0.51836,0.4683 0.27044,0.52552 0.27043,0.5255 0.0107,0.77505 0.0107,0.77505 -0.37088,0.75561 -0.37087,0.75561 -0.59079,0.37467 -0.59079,0.37466 h -0.41744 -0.41744 l -0.26773,-0.34036 z"
           id="path1103"
           sodipodi:nodetypes="cccccccccccccccccccccccccccccccccccccccccccccccccccccccccccccccccccccccccccccccccccccccccccccccccccccccccccccccccccccccccccccccccccccccccccccccccccccccccccccccccccccccccccccccccccccccccccccccccccccccccccccccccccccccccccccccccccccccccccccccccccccccccccccccccccccccccccccccccccccccccccccccccccccccccccccccccccccccccccccccccccccccccccccccccccccccccccccccccccccccccccccccccccccccccccccccccccccccccccccccccccccccccccccccccccccccccccccccccccccccccccccccccccccccccccccccccccccccccccccccccccccccccccccccccccc" />
      </g>
    </g>
    <g
       id="g1120"
       transform="matrix(1.7140728,0,0,1.7140728,-302.01605,11.207217)"
       style="stroke-width:0.583405"
       inkscape:export-xdpi="88.496597"
       inkscape:export-ydpi="88.496597">
      <path
         style="fill:#ffffff;stroke-width:0.583405"
         d="m 408.53234,7.3717262 -0.0634,-0.0635 -2.25787,-0.04597 -2.25787,-0.04597 -0.55034,-0.192362 -0.55033,-0.192363 -0.381,-0.177814 -0.381,-0.177813 -0.58362,-0.373151 -0.58361,-0.373151 -0.98272,-0.995365 -0.98272,-0.995365 -0.73217,-0.755338 -0.73216,-0.755337 -0.2415,-0.184496 -0.2415,-0.184496 -0.46567,-0.370347 -0.46566,-0.370348 -0.19514,-0.352227 -0.19514,-0.352228 0.0999,-0.193595 0.0999,-0.193596 0.17351,-0.1905 0.17351,-0.1905 h 0.0991 0.0991 l 0.14012,-0.154834 0.14013,-0.15483298 v -0.208198 -0.20819792 l 0.23283,-0.268086 0.23283,-0.268086 0.54955,-0.273674 0.54955,-0.273674 0.146,-0.174708 0.146,-0.174709 0.13322,-0.2736811 0.13322,-0.273682 0.69738,-0.582483 0.69738,-0.582483 0.27302,-0.310948 0.27302,-0.3109478 v -0.62807 -0.62807 l -0.0983,-0.215651 -0.0983,-0.21565 h -0.0603 -0.0603 l -0.32473,-0.656167 -0.32473,-0.656167 -0.0334,-0.650714 -0.0334,-0.650714 0.18932,-0.576952 0.18932,-0.5769524 0.0838,-0.105833 0.0838,-0.105833 h 0.25481 0.2548 l 0.264,-0.15882 0.26399,-0.158819 0.51197,-0.04326 0.51198,-0.04326 0.43874,-0.155825 0.43873,-0.155826 0.27696,0.113586 0.27695,0.113586 0.23996,0.04331 0.23996,0.04331 0.73371,-0.344868 0.73371,-0.34487 0.53499,-0.107263 0.535,-0.107263 0.56567,0.146656 0.56567,0.146656 0.33867,0.159447 0.33866,0.159447 0.33867,0.146213 0.33867,0.146213 0.71966,0.0537 0.71967,0.0537 0.475,0.316837 0.475,0.316837 0.58947,0.6346194 0.58946,0.634621 h 0.12645 0.12646 l 0.75641,-0.741635 0.75642,-0.7416344 0.49069,-0.329665 0.49069,-0.329665 0.3297,-0.685533 0.3297,-0.685533 0.0552,-0.254 0.0552,-0.254 0.15309,-0.550334 0.1531,-0.550333 0.18184,-0.719667 0.18183,-0.719666 0.20733,-0.652927 0.20734,-0.652925 0.17539,-0.336493 0.17539,-0.336491 0.35088,-0.398623 0.35088,-0.398622 0.42656,-0.198632 0.42656,-0.198633 0.11772,-8.3e-4 0.11773,-8.29e-4 0.36911,0.184341 0.36911,0.184341 v 0.07323 0.07323 l 0.0858,0.102259 0.0859,0.10226 0.22784,0.338667 0.22784,0.338667 -0.002,0.677333 -0.002,0.677333 -0.48777,1.016 -0.48777,1.016 -0.17362,0.366643 -0.17361,0.366643 -0.14687,0.141356 -0.14687,0.141358 -0.56501,0.719667 -0.56501,0.719667 -0.0702,0.09 -0.0702,0.09 -0.0961,0.179601 -0.0961,0.179602 v 0.482576 0.4825754 l -0.10353,0.34849 -0.10353,0.34849 -0.51031,0.480994 -0.5103,0.480994 -0.42281,0.380668 -0.42281,0.380666 -0.0553,1.636005 -0.0553,1.6360058 -0.11512,0.338666 -0.11513,0.338667 -0.16843,0.249686 -0.16843,0.249686 0.0203,0.6393131 0.0203,0.639315 -0.15768,0.508 -0.15767,0.50799992 -0.17535,0.67733298 -0.17535,0.677333 -0.0506,0.508 -0.0505,0.508 -0.1349,0.592667 -0.1349,0.592666 -0.29278,0.889 -0.29278,0.889 -0.20121,0.348564 -0.2012,0.348563 -0.47684,0.435801 -0.47684,0.4358 -0.36066,0.211363 -0.36066,0.211362 -0.5969,0.203018 -0.5969,0.203018 -0.28314,0.126337 -0.28314,0.126337 -0.39732,0.09309 -0.39733,0.09309 h -0.16006 -0.16006 l -0.0634,-0.0635 z m -16.94049,-9.0909749 -0.59266,-0.168697 -0.63472,-0.310468 -0.63471,-0.310467 -0.34804,-0.3407801 -0.34803,-0.340779 -0.56629,-0.677333 -0.56629,-0.677334 -0.13468,-0.2791848 -0.13468,-0.279185 0.24438,-0.301251 0.24439,-0.301252 0.37969,-0.20273 0.37969,-0.20273 0.59398,8.47e-4 0.59397,8.46e-4 0.45146,0.210169 0.45146,0.210169 0.22574,0.177566 0.22574,0.177566 0.35945,0.521604 0.35945,0.5216048 5.2e-4,0.113937 5.2e-4,0.113937 0.11979,0.22473 0.11978,0.22473 0.26295,0.569754 0.26294,0.5697551 0.33694,0.354193 0.33693,0.354192 v 0.11322 0.113218 l -0.6985,-0.0055 -0.6985,-0.0055 -0.59267,-0.168696 z m 8.06539,-9.7244663 -0.38279,-0.336944 -0.25633,-0.530889 -0.25633,-0.530891 -0.0962,-0.312688 -0.0962,-0.312689 -0.0849,-0.787978 -0.0849,-0.787978 -0.48033,-0.973667 -0.48034,-0.973666 -0.0502,-0.646444 -0.0502,-0.646443 -0.1216,-0.130091 -0.1216,-0.130091 -0.33867,-0.565693 -0.33867,-0.565693 -0.1905,-0.291366 -0.1905,-0.291366 v -0.104401 -0.104401 l -0.14051,-0.200612 -0.14052,-0.200612 -0.0393,-0.61312 -0.0394,-0.61312 0.21649,-0.472884 0.2165,-0.472883 0.28086,-0.17124 0.28087,-0.17124 0.38559,-3.13e-4 0.38559,-3.14e-4 0.37641,0.238954 0.37641,0.238954 0.21764,0.290213 0.21763,0.290213 0.1422,0.361546 0.1422,0.361547 v 0.685259 0.685259 l 0.15845,0.307861 0.15846,0.307861 0.17301,0.423333 0.17302,0.423333 0.16735,0.465667 0.16736,0.465667 0.18778,1.100667 0.18778,1.100666 0.27594,0.423334 0.27594,0.423333 0.19299,0.381 0.193,0.381 0.11144,0.465666 0.11145,0.465667 0.003,0.311041 0.003,0.311041 -0.10037,0.434804 -0.10036,0.434806 -0.28359,0.248987 -0.28358,0.248988 h -0.3238 -0.3238 l -0.38278,-0.336943 z m 10.89637,-1.216032 -0.29276,-0.292758 v -0.564366 -0.564366 l 0.095,-0.184934 0.095,-0.184934 0.21716,-0.232834 0.21716,-0.232833 h 0.20393 0.20393 l 0.2459,0.145255 0.24589,0.145255 v 0.505347 0.505347 l -0.18237,0.386565 -0.18238,0.386564 -0.13418,0.156009 -0.13417,0.156009 -0.15269,0.08172 -0.15269,0.08172 z m -5.77783,-0.654522 -0.35377,-0.260163 -0.30721,-0.62159 -0.3072,-0.621589 0.0356,-0.663414 0.0357,-0.663413 0.20647,-0.415641 0.20648,-0.41564 0.22434,-0.166045 0.22433,-0.166044 0.4014,0.20047 0.4014,0.200469 0.39539,0.443612 0.39538,0.443611 0.18624,0.530271 0.18624,0.53027 -8.6e-4,0.481321 -8.5e-4,0.481322 -0.0842,0.221558 -0.0842,0.221557 -0.2733,0.249622 -0.2733,0.24962 h -0.43011 -0.43012 l -0.35377,-0.260164 z m 6.18012,-4.057103 -0.36329,-0.164881 -0.10792,-0.108426 -0.10791,-0.108426 -0.2273,-0.388439 -0.22729,-0.388438 v -0.571332 -0.571331 l 0.14186,-0.532403 0.14187,-0.532402 -0.11161,-1.094632 -0.11161,-1.094632 0.10614,-0.334196 0.10614,-0.334195 0.20523,-0.358791 0.20523,-0.358791 0.31302,-0.212709 0.31303,-0.212709 h 0.28089 0.28088 l 0.24111,0.124681 0.2411,0.124681 0.25245,0.410277 0.25245,0.410277 0.0986,0.586876 0.0986,0.586875 -0.13239,0.878693 -0.13238,0.878692 -0.0434,0.07016 -0.0434,0.07016 -0.0822,1.149973 -0.0822,1.149972 -0.20281,0.400227 -0.20281,0.400228 -0.30781,0.146781 -0.3078,0.146781 -0.0606,-0.0019 -0.0606,-0.0019 -0.36329,-0.164882 z m -6.83688,-0.752545 -0.34217,-0.155426 -0.23241,-0.276197 -0.2324,-0.276198 -0.13059,-0.252526 -0.13059,-0.252526 -0.11942,-0.393491 -0.11942,-0.393491 -9.2e-4,-0.756435 -9.1e-4,-0.756435 -0.16206,-0.344232 -0.16206,-0.344231 -0.19351,-0.423333 -0.19352,-0.423333 -2.5e-4,-0.846667 -2.6e-4,-0.846668 0.22483,-0.43377 0.22483,-0.433771 0.31736,-0.187244 0.31735,-0.187244 0.25004,0.05001 0.25004,0.05001 0.36795,0.301509 0.36792,0.301509 v 0.121331 0.121332 h 0.079 0.079 l 0.0581,0.1905 0.0581,0.1905 0.16939,0.377468 0.1694,0.377466 -0.0483,0.892533 -0.0483,0.892534 -0.0526,0.212893 -0.0526,0.212893 0.15422,0.173984 0.15423,0.173983 0.14817,0.05497 0.14816,0.05497 v 0.122602 0.122602 l 0.0884,0.02946 0.0884,0.02946 0.13187,0.63376 0.13188,0.63376 -0.0481,0.411913 -0.0481,0.411913 -0.17212,0.355548 -0.17212,0.355549 -0.29925,0.142705 -0.29926,0.142705 -0.18763,-0.0019 -0.18762,-0.0019 -0.34217,-0.155426 z"
         id="path1049" />
      <text
         xml:space="preserve"
         style="font-size:12.7px;line-height:1.25;font-family:FreeSans;-inkscape-font-specification:FreeSans;text-align:center;letter-spacing:0.79375px;text-anchor:middle;fill:#ffffff;stroke-width:0.583405;stroke-linecap:round;stroke-dashoffset:9.97795"
         x="363.7388"
         y="-4.8973041"
         id="text1107"
         inkscape:export-xdpi="107.26374"
         inkscape:export-ydpi="107.26374"><tspan
           sodipodi:role="line"
           x="364.13568"
           y="-4.8973041"
           style="font-style:normal;font-variant:normal;font-weight:normal;font-stretch:normal;font-family:ChunkFive;-inkscape-font-specification:ChunkFive;fill:#ffffff;stroke-width:0.583405"
           id="tspan1105">IAN</tspan></text>
      <text
         xml:space="preserve"
         style="font-size:12.7px;line-height:1.25;font-family:FreeSans;-inkscape-font-specification:FreeSans;text-align:center;letter-spacing:0.79375px;text-anchor:middle;fill:#ffffff;stroke-width:0.583405;stroke-linecap:round;stroke-dashoffset:9.97795"
         x="455.94226"
         y="-4.8782539"
         id="text1111"
         inkscape:export-xdpi="107.26374"
         inkscape:export-ydpi="107.26374"><tspan
           sodipodi:role="line"
           x="456.33914"
           y="-4.8782539"
           style="font-style:normal;font-variant:normal;font-weight:normal;font-stretch:normal;font-family:ChunkFive;-inkscape-font-specification:ChunkFive;fill:#ffffff;stroke-width:0.583405"
           id="tspan1109">HANDS</tspan></text>
    </g>
    <text
       xml:space="preserve"
       id="text1137"
       style="font-style:normal;font-variant:normal;font-weight:normal;font-stretch:normal;font-size:12.7px;line-height:1.25;font-family:ChunkFive;-inkscape-font-specification:ChunkFive;text-align:center;white-space:pre;shape-inside:url(#rect1139);fill:#000000;stroke-width:1;stroke-linecap:round;stroke-dashoffset:2.64" />
    <rect
       style="fill:#000000;stroke-width:0.999999;stroke-linecap:round;stroke-dashoffset:9.97795"
       id="rect1157"
       width="255.12595"
       height="143.50835"
       x="873.10767"
       y="289.84222"
       inkscape:export-xdpi="88.49659"
       inkscape:export-ydpi="88.49659" />
    <text
       xml:space="preserve"
       style="font-size:12.7px;line-height:1.25;font-family:FreeSans;-inkscape-font-specification:FreeSans;text-align:center;letter-spacing:0.79375px;text-anchor:middle;white-space:pre;inline-size:106.201;fill:#ffffff;stroke-width:0.422286;stroke-linecap:round;stroke-dashoffset:9.97795"
       x="88.757698"
       y="175.82562"
       id="text851"
       transform="matrix(2.3680647,0,0,2.3680647,780.28129,-63.762303)"
       inkscape:export-xdpi="88.49659"
       inkscape:export-ydpi="88.49659"><tspan
         x="88.757698"
         y="175.82562"><tspan
           style="font-style:normal;font-variant:normal;font-weight:normal;font-stretch:normal;font-family:ChunkFive;-inkscape-font-specification:ChunkFive;fill:#ffffff;stroke-width:0.422286">YOUR
</tspan></tspan><tspan
         x="88.757698"
         y="192.33562"><tspan
           style="font-style:normal;font-variant:normal;font-weight:normal;font-stretch:normal;font-family:ChunkFive;-inkscape-font-specification:ChunkFive;fill:#ffffff;stroke-width:0.422286">     FACE</tspan></tspan></text>
    <text
       xml:space="preserve"
       style="font-size:23.5343px;line-height:1.25;font-family:FreeSans;-inkscape-font-specification:FreeSans;text-align:center;letter-spacing:1.47089px;text-anchor:middle;fill:#ffffff;stroke-width:1;stroke-linecap:round;stroke-dashoffset:9.97795"
       x="705.85718"
       y="379.98953"
       id="text859"
       inkscape:export-xdpi="88.49659"
       inkscape:export-ydpi="88.49659"><tspan
         sodipodi:role="line"
         id="tspan857"
         x="706.59265"
         y="379.98953"
         style="font-style:normal;font-variant:normal;font-weight:normal;font-stretch:normal;font-family:ChunkFive;-inkscape-font-specification:ChunkFive;fill:#ffffff;stroke-width:1">. . .</tspan></text>
    <text
       xml:space="preserve"
       style="font-size:29.5726px;line-height:1.25;font-family:FreeSans;-inkscape-font-specification:FreeSans;text-align:center;letter-spacing:1.84829px;text-anchor:middle;fill:#ffffff;stroke-width:1;stroke-linecap:round;stroke-dashoffset:9.97795"
       x="1000.9959"
       y="188.75095"
       id="text1169"
       inkscape:export-xdpi="88.496597"
       inkscape:export-ydpi="88.496597"><tspan
         sodipodi:role="line"
         x="1001.92"
         y="188.75095"
         style="font-style:normal;font-variant:normal;font-weight:normal;font-stretch:normal;font-family:ChunkFive;-inkscape-font-specification:ChunkFive;fill:#ffffff;stroke-width:1"
         id="tspan1167">THANK YOU!</tspan></text>
  </g>
</svg>
