<?xml version="1.0" encoding="UTF-8" standalone="no"?>
<svg
   xmlns:dc="http://purl.org/dc/elements/1.1/"
   xmlns:cc="http://creativecommons.org/ns#"
   xmlns:rdf="http://www.w3.org/1999/02/22-rdf-syntax-ns#"
   xmlns:svg="http://www.w3.org/2000/svg"
   xmlns="http://www.w3.org/2000/svg"
   xmlns:sodipodi="http://sodipodi.sourceforge.net/DTD/sodipodi-0.dtd"
   xmlns:inkscape="http://www.inkscape.org/namespaces/inkscape"
   width="844.75281mm"
   height="509.90002mm"
   viewBox="0 0 844.75282 509.90004"
   version="1.1"
   id="svg8"
   inkscape:version="1.0.1 (3bc2e813f5, 2020-09-07)"
   sodipodi:docname="drawing.svg">
  <defs
     id="defs2">
    <rect
       x="575.9187"
       y="1298.8041"
       width="238.71893"
       height="172.49886"
       id="rect1139" />
    <rect
       x="323.45901"
       y="29.588322"
       width="172.09012"
       height="303.30371"
       id="rect985" />
    <rect
       x="336.99911"
       y="89.913857"
       width="156.66"
       height="245.10645"
       id="rect979" />
  </defs>
  <sodipodi:namedview
     id="base"
     pagecolor="#1c1c1c"
     bordercolor="#666666"
     borderopacity="1.0"
     inkscape:pageopacity="1"
     inkscape:pageshadow="2"
     inkscape:zoom="0.175"
     inkscape:cx="1682.7736"
     inkscape:cy="1422.1531"
     inkscape:document-units="mm"
     inkscape:current-layer="layer1"
     inkscape:document-rotation="0"
     showgrid="false"
     fit-margin-top="0"
     fit-margin-left="0"
     fit-margin-right="0"
     fit-margin-bottom="0"
     inkscape:window-width="1200"
     inkscape:window-height="1920"
     inkscape:window-x="2560"
     inkscape:window-y="-37"
     inkscape:window-maximized="1" />
  <metadata
     id="metadata5">
    <rdf:RDF>
      <cc:Work
         rdf:about="">
        <dc:format>image/svg+xml</dc:format>
        <dc:type
           rdf:resource="http://purl.org/dc/dcmitype/StillImage" />
        <dc:title />
      </cc:Work>
    </rdf:RDF>
  </metadata>
  <g
     inkscape:label="Layer 1"
     inkscape:groupmode="layer"
     id="layer1"
     transform="translate(-283.48077,76.549461)">
    <rect
       style="fill:#000000;stroke-width:0.999999;stroke-linecap:round;stroke-dashoffset:9.97795"
       id="rect1143"
       width="255.12595"
       height="143.50835"
       x="578.29419"
       y="-76.549461"
       inkscape:export-xdpi="88.496597"
       inkscape:export-ydpi="88.496597" />
    <rect
       style="fill:#000000;stroke-width:0.999999;stroke-linecap:round;stroke-dashoffset:9.97795"
       id="rect1113"
       width="255.12595"
       height="143.50835"
       x="283.48077"
       y="-76.549461"
       inkscape:export-xdpi="88.496597"
       inkscape:export-ydpi="88.496597" />
    <rect
       style="fill:#000000;stroke-width:0.999999;stroke-linecap:round;stroke-dashoffset:9.97795"
       id="rect1145"
       width="255.12595"
       height="143.50835"
       x="873.10767"
       y="-76.549461"
       inkscape:export-xdpi="88.496597"
       inkscape:export-ydpi="88.496597" />
    <rect
       style="fill:#000000;stroke-width:0.999999;stroke-linecap:round;stroke-dashoffset:9.97795"
       id="rect1147"
       width="255.12595"
       height="143.50835"
       x="283.48077"
       y="106.64639"
       inkscape:export-xdpi="88.496597"
       inkscape:export-ydpi="88.496597" />
    <rect
       style="fill:#000000;stroke-width:0.999999;stroke-linecap:round;stroke-dashoffset:9.97795"
       id="rect1149"
       width="255.12595"
       height="143.50835"
       x="578.29419"
       y="106.64639"
       inkscape:export-xdpi="88.496597"
       inkscape:export-ydpi="88.496597" />
    <rect
       style="fill:#000000;stroke-width:0.999999;stroke-linecap:round;stroke-dashoffset:9.97795"
       id="rect1151"
       width="255.12595"
       height="143.50835"
       x="873.10767"
       y="106.64639"
       inkscape:export-xdpi="88.496597"
       inkscape:export-ydpi="88.496597" />
    <rect
       style="fill:#000000;stroke-width:0.999999;stroke-linecap:round;stroke-dashoffset:9.97795"
       id="rect1153"
       width="255.12595"
       height="143.50835"
       x="283.48077"
       y="289.84222"
       inkscape:export-xdpi="88.49659"
       inkscape:export-ydpi="88.49659" />
    <rect
       style="fill:#000000;stroke-width:0.999999;stroke-linecap:round;stroke-dashoffset:9.97795"
       id="rect1155"
       width="255.12595"
       height="143.50835"
       x="578.29419"
       y="289.84222"
       inkscape:export-xdpi="88.49659"
       inkscape:export-ydpi="88.49659" />
    <text
       xml:space="preserve"
       style="font-size:30.3649px;line-height:1.25;font-family:FreeSans;-inkscape-font-specification:FreeSans;text-align:center;letter-spacing:1.89781px;text-anchor:middle;fill:#ffffff;stroke-width:1;stroke-linecap:round;stroke-dashoffset:9.97795"
       x="706.57068"
       y="169.29109"
       id="text835"
       inkscape:export-xdpi="88.496597"
       inkscape:export-ydpi="88.496597"><tspan
         sodipodi:role="line"
         id="tspan833"
         x="706.57068"
         y="169.29109"
         style="font-style:normal;font-variant:normal;font-weight:normal;font-stretch:normal;font-family:ChunkFive;-inkscape-font-specification:ChunkFive;fill:#ffffff;stroke-width:1">BON</tspan><tspan
         sodipodi:role="line"
         x="707.51959"
         y="208.76546"
         style="font-style:normal;font-variant:normal;font-weight:normal;font-stretch:normal;font-family:ChunkFive;-inkscape-font-specification:ChunkFive;fill:#ffffff;stroke-width:1"
         id="tspan1033">VOYAGE!</tspan></text>
    <text
       xml:space="preserve"
       id="text977"
       style="font-style:normal;font-variant:normal;font-weight:normal;font-stretch:normal;font-size:12.7px;line-height:1.25;font-family:ChunkFive;-inkscape-font-specification:ChunkFive;text-align:center;white-space:pre;shape-inside:url(#rect979);fill:#ffffff;stroke-width:1;stroke-linecap:round;stroke-dashoffset:2.64;"
       transform="translate(-8.584076,-33.518737)" />
    <g
       id="g1125"
       transform="matrix(1.7579768,0,0,1.7579768,-60.480419,-139.15611)"
       style="stroke-width:0.568835"
       inkscape:export-xdpi="88.496597"
       inkscape:export-ydpi="88.496597">
      <path
         style="fill:#ffffff;stroke-width:0.568835"
         d="m 401.33944,93.740069 c -14.223,-2.166204 -27.66332,-10.290481 -27.66332,-16.721653 0,-3.211516 2.05098,-4.804131 7.12527,-5.532869 2.27723,-0.327046 2.292,-0.325978 2.11606,0.152302 -0.0974,0.264909 -0.16618,0.990952 -0.15272,1.613437 0.0515,2.385082 2.96274,5.318483 7.50938,7.566631 4.4191,2.185086 7.34808,2.922083 12.39514,3.118885 4.04663,0.157792 6.12775,-0.218132 7.91191,-1.429172 1.78663,-1.212732 2.06038,-1.754243 2.05052,-4.056314 -0.01,-2.25734 -0.10465,-2.210802 1.96823,-0.964302 3.22362,1.938499 5.32051,5.041651 5.29423,7.834872 -0.0258,2.738129 -1.66883,5.264373 -4.3552,6.696197 -2.61888,1.395848 -4.24509,1.711558 -9.13771,1.773988 -2.39553,0.03052 -4.67333,0.0071 -5.06179,-0.05197 z m -1.88347,-15.005362 c -5.81402,-1.099546 -12.60965,-4.590742 -14.75748,-7.581545 -0.41485,-0.577673 -0.87536,-1.003854 -1.02334,-0.947075 -0.36115,0.13859 2.79807,-8.630767 3.42799,-9.515411 0.27293,-0.383292 0.6938,-0.80263 0.93525,-0.931859 0.75002,-0.40139 2.18143,-0.25562 3.49511,0.355929 1.89681,0.883017 2.80543,0.776879 4.35019,-0.508142 0.44333,-0.368787 0.96626,-0.553604 1.56639,-0.553604 1.75447,0 9.09564,2.923382 11.0123,4.385286 0.43668,0.33307 0.94836,0.939378 1.13705,1.347344 0.61287,1.325089 2.68177,10.77206 2.42375,11.067348 -0.1292,0.14788 -0.43157,0.601014 -0.67191,1.006969 -0.27534,0.465066 -0.94511,0.987455 -1.81064,1.412212 -1.30657,0.641198 -1.54614,0.676568 -4.90515,0.724174 -2.15957,0.03061 -4.17171,-0.07101 -5.17951,-0.261626 z"
         id="path1029"
         inkscape:export-xdpi="88.496597"
         inkscape:export-ydpi="88.496597" />
      <text
         xml:space="preserve"
         style="font-size:12.7px;line-height:1.25;font-family:FreeSans;-inkscape-font-specification:FreeSans;text-align:center;letter-spacing:0.79375px;text-anchor:middle;fill:#ffffff;stroke-width:0.568835;stroke-linecap:round;stroke-dashoffset:9.97795"
         x="463.6203"
         y="80.874237"
         id="text1039"
         inkscape:export-xdpi="88.496597"
         inkscape:export-ydpi="88.496597"><tspan
           sodipodi:role="line"
           x="464.01718"
           y="80.874237"
           style="font-style:normal;font-variant:normal;font-weight:normal;font-stretch:normal;font-family:ChunkFive;-inkscape-font-specification:ChunkFive;fill:#ffffff;stroke-width:0.568835"
           id="tspan1037">2009-2021</tspan></text>
    </g>
    <g
       id="g1130"
       transform="matrix(2.0167965,0,0,2.0167965,145.49158,-302.25943)"
       style="stroke-width:0.495835"
       inkscape:export-xdpi="88.496597"
       inkscape:export-ydpi="88.496597">
      <path
         style="fill:#ffffff;stroke-width:0.495835"
         d="m 400.66488,164.19451 c -7.50703,-1.25679 -13.28052,-7.28871 -14.13333,-14.76595 -0.52801,-4.6295 0.59866,-8.81164 3.35301,-12.44624 3.18303,-4.20028 7.86635,-6.43833 13.50522,-6.45385 3.0166,-0.009 6.0022,0.77624 8.51906,2.2386 1.74108,1.01162 4.34659,3.53746 5.60556,5.43418 1.07679,1.62225 2.36354,4.86088 2.37398,5.97509 l 0.006,0.6417 h -11.70384 -11.70386 l 0.082,2.63809 0.082,2.63808 3.85019,0.0695 c 2.1176,0.0383 4.13894,0.13692 4.49187,0.21933 l 0.64171,0.14982 v 6.80369 6.80369 l -0.89126,0.17824 c -1.0931,0.21863 -2.24014,0.18375 -4.07834,-0.12399 z m 11.52915,-8.39632 v -5.56138 h 3.66006 c 2.01303,0 3.73538,0.0753 3.82744,0.1674 0.58776,0.58775 -2.04764,6.20119 -3.7549,7.998 -1.43984,1.51534 -3.12562,2.95735 -3.45732,2.95735 -0.16749,0 -0.27528,-2.17759 -0.27528,-5.56137 z"
         id="path1003"
         sodipodi:nodetypes="csssssccccccsscccsccscsssss" />
      <text
         xml:space="preserve"
         style="font-style:normal;font-variant:normal;font-weight:normal;font-stretch:normal;font-size:12.7px;line-height:1.25;font-family:ChunkFive;-inkscape-font-specification:ChunkFive;text-align:center;text-anchor:middle;fill:#ffffff;stroke-width:0.495835;stroke-linecap:round;stroke-dashoffset:9.97795"
         x="445.36407"
         y="151.93839"
         id="text1045"><tspan
           sodipodi:role="line"
           id="tspan1043"
           x="445.36407"
           y="151.93839"
           style="stroke-width:0.495835">2021-</tspan></text>
    </g>
    <text
       xml:space="preserve"
       style="font-size:25.7461px;line-height:1.25;font-family:FreeSans;-inkscape-font-specification:FreeSans;text-align:center;letter-spacing:1.60913px;text-anchor:middle;fill:#ffffff;stroke-width:1;stroke-linecap:round;stroke-dashoffset:9.97795"
       x="410.91498"
       y="351.87723"
       id="text1059"
       inkscape:export-xdpi="88.49659"
       inkscape:export-ydpi="88.49659"><tspan
         sodipodi:role="line"
         x="410.91498"
         y="351.87723"
         style="font-style:normal;font-variant:normal;font-weight:normal;font-stretch:normal;font-family:ChunkFive;-inkscape-font-specification:ChunkFive;fill:#ffffff;stroke-width:1"
         id="tspan1057">oh, one</tspan><tspan
         sodipodi:role="line"
         x="411.71954"
         y="385.34717"
         style="font-style:normal;font-variant:normal;font-weight:normal;font-stretch:normal;font-family:ChunkFive;-inkscape-font-specification:ChunkFive;fill:#ffffff;stroke-width:1"
         id="tspan1063">more thing</tspan></text>
    <g
       id="g1120"
       transform="matrix(1.7140728,0,0,1.7140728,-302.01605,11.207217)"
       style="stroke-width:0.583405"
       inkscape:export-xdpi="88.496597"
       inkscape:export-ydpi="88.496597">
      <path
         style="fill:#ffffff;stroke-width:0.583405"
         d="m 408.53234,7.3717262 -0.0634,-0.0635 -2.25787,-0.04597 -2.25787,-0.04597 -0.55034,-0.192362 -0.55033,-0.192363 -0.381,-0.177814 -0.381,-0.177813 -0.58362,-0.373151 -0.58361,-0.373151 -0.98272,-0.995365 -0.98272,-0.995365 -0.73217,-0.755338 -0.73216,-0.755337 -0.2415,-0.184496 -0.2415,-0.184496 -0.46567,-0.370347 -0.46566,-0.370348 -0.19514,-0.352227 -0.19514,-0.352228 0.0999,-0.193595 0.0999,-0.193596 0.17351,-0.1905 0.17351,-0.1905 h 0.0991 0.0991 l 0.14012,-0.154834 0.14013,-0.15483298 v -0.208198 -0.20819792 l 0.23283,-0.268086 0.23283,-0.268086 0.54955,-0.273674 0.54955,-0.273674 0.146,-0.174708 0.146,-0.174709 0.13322,-0.2736811 0.13322,-0.273682 0.69738,-0.582483 0.69738,-0.582483 0.27302,-0.310948 0.27302,-0.3109478 v -0.62807 -0.62807 l -0.0983,-0.215651 -0.0983,-0.21565 h -0.0603 -0.0603 l -0.32473,-0.656167 -0.32473,-0.656167 -0.0334,-0.650714 -0.0334,-0.650714 0.18932,-0.576952 0.18932,-0.5769524 0.0838,-0.105833 0.0838,-0.105833 h 0.25481 0.2548 l 0.264,-0.15882 0.26399,-0.158819 0.51197,-0.04326 0.51198,-0.04326 0.43874,-0.155825 0.43873,-0.155826 0.27696,0.113586 0.27695,0.113586 0.23996,0.04331 0.23996,0.04331 0.73371,-0.344868 0.73371,-0.34487 0.53499,-0.107263 0.535,-0.107263 0.56567,0.146656 0.56567,0.146656 0.33867,0.159447 0.33866,0.159447 0.33867,0.146213 0.33867,0.146213 0.71966,0.0537 0.71967,0.0537 0.475,0.316837 0.475,0.316837 0.58947,0.6346194 0.58946,0.634621 h 0.12645 0.12646 l 0.75641,-0.741635 0.75642,-0.7416344 0.49069,-0.329665 0.49069,-0.329665 0.3297,-0.685533 0.3297,-0.685533 0.0552,-0.254 0.0552,-0.254 0.15309,-0.550334 0.1531,-0.550333 0.18184,-0.719667 0.18183,-0.719666 0.20733,-0.652927 0.20734,-0.652925 0.17539,-0.336493 0.17539,-0.336491 0.35088,-0.398623 0.35088,-0.398622 0.42656,-0.198632 0.42656,-0.198633 0.11772,-8.3e-4 0.11773,-8.29e-4 0.36911,0.184341 0.36911,0.184341 v 0.07323 0.07323 l 0.0858,0.102259 0.0859,0.10226 0.22784,0.338667 0.22784,0.338667 -0.002,0.677333 -0.002,0.677333 -0.48777,1.016 -0.48777,1.016 -0.17362,0.366643 -0.17361,0.366643 -0.14687,0.141356 -0.14687,0.141358 -0.56501,0.719667 -0.56501,0.719667 -0.0702,0.09 -0.0702,0.09 -0.0961,0.179601 -0.0961,0.179602 v 0.482576 0.4825754 l -0.10353,0.34849 -0.10353,0.34849 -0.51031,0.480994 -0.5103,0.480994 -0.42281,0.380668 -0.42281,0.380666 -0.0553,1.636005 -0.0553,1.6360058 -0.11512,0.338666 -0.11513,0.338667 -0.16843,0.249686 -0.16843,0.249686 0.0203,0.6393131 0.0203,0.639315 -0.15768,0.508 -0.15767,0.50799992 -0.17535,0.67733298 -0.17535,0.677333 -0.0506,0.508 -0.0505,0.508 -0.1349,0.592667 -0.1349,0.592666 -0.29278,0.889 -0.29278,0.889 -0.20121,0.348564 -0.2012,0.348563 -0.47684,0.435801 -0.47684,0.4358 -0.36066,0.211363 -0.36066,0.211362 -0.5969,0.203018 -0.5969,0.203018 -0.28314,0.126337 -0.28314,0.126337 -0.39732,0.09309 -0.39733,0.09309 h -0.16006 -0.16006 l -0.0634,-0.0635 z m -16.94049,-9.0909749 -0.59266,-0.168697 -0.63472,-0.310468 -0.63471,-0.310467 -0.34804,-0.3407801 -0.34803,-0.340779 -0.56629,-0.677333 -0.56629,-0.677334 -0.13468,-0.2791848 -0.13468,-0.279185 0.24438,-0.301251 0.24439,-0.301252 0.37969,-0.20273 0.37969,-0.20273 0.59398,8.47e-4 0.59397,8.46e-4 0.45146,0.210169 0.45146,0.210169 0.22574,0.177566 0.22574,0.177566 0.35945,0.521604 0.35945,0.5216048 5.2e-4,0.113937 5.2e-4,0.113937 0.11979,0.22473 0.11978,0.22473 0.26295,0.569754 0.26294,0.5697551 0.33694,0.354193 0.33693,0.354192 v 0.11322 0.113218 l -0.6985,-0.0055 -0.6985,-0.0055 -0.59267,-0.168696 z m 8.06539,-9.7244663 -0.38279,-0.336944 -0.25633,-0.530889 -0.25633,-0.530891 -0.0962,-0.312688 -0.0962,-0.312689 -0.0849,-0.787978 -0.0849,-0.787978 -0.48033,-0.973667 -0.48034,-0.973666 -0.0502,-0.646444 -0.0502,-0.646443 -0.1216,-0.130091 -0.1216,-0.130091 -0.33867,-0.565693 -0.33867,-0.565693 -0.1905,-0.291366 -0.1905,-0.291366 v -0.104401 -0.104401 l -0.14051,-0.200612 -0.14052,-0.200612 -0.0393,-0.61312 -0.0394,-0.61312 0.21649,-0.472884 0.2165,-0.472883 0.28086,-0.17124 0.28087,-0.17124 0.38559,-3.13e-4 0.38559,-3.14e-4 0.37641,0.238954 0.37641,0.238954 0.21764,0.290213 0.21763,0.290213 0.1422,0.361546 0.1422,0.361547 v 0.685259 0.685259 l 0.15845,0.307861 0.15846,0.307861 0.17301,0.423333 0.17302,0.423333 0.16735,0.465667 0.16736,0.465667 0.18778,1.100667 0.18778,1.100666 0.27594,0.423334 0.27594,0.423333 0.19299,0.381 0.193,0.381 0.11144,0.465666 0.11145,0.465667 0.003,0.311041 0.003,0.311041 -0.10037,0.434804 -0.10036,0.434806 -0.28359,0.248987 -0.28358,0.248988 h -0.3238 -0.3238 l -0.38278,-0.336943 z m 10.89637,-1.216032 -0.29276,-0.292758 v -0.564366 -0.564366 l 0.095,-0.184934 0.095,-0.184934 0.21716,-0.232834 0.21716,-0.232833 h 0.20393 0.20393 l 0.2459,0.145255 0.24589,0.145255 v 0.505347 0.505347 l -0.18237,0.386565 -0.18238,0.386564 -0.13418,0.156009 -0.13417,0.156009 -0.15269,0.08172 -0.15269,0.08172 z m -5.77783,-0.654522 -0.35377,-0.260163 -0.30721,-0.62159 -0.3072,-0.621589 0.0356,-0.663414 0.0357,-0.663413 0.20647,-0.415641 0.20648,-0.41564 0.22434,-0.166045 0.22433,-0.166044 0.4014,0.20047 0.4014,0.200469 0.39539,0.443612 0.39538,0.443611 0.18624,0.530271 0.18624,0.53027 -8.6e-4,0.481321 -8.5e-4,0.481322 -0.0842,0.221558 -0.0842,0.221557 -0.2733,0.249622 -0.2733,0.24962 h -0.43011 -0.43012 l -0.35377,-0.260164 z m 6.18012,-4.057103 -0.36329,-0.164881 -0.10792,-0.108426 -0.10791,-0.108426 -0.2273,-0.388439 -0.22729,-0.388438 v -0.571332 -0.571331 l 0.14186,-0.532403 0.14187,-0.532402 -0.11161,-1.094632 -0.11161,-1.094632 0.10614,-0.334196 0.10614,-0.334195 0.20523,-0.358791 0.20523,-0.358791 0.31302,-0.212709 0.31303,-0.212709 h 0.28089 0.28088 l 0.24111,0.124681 0.2411,0.124681 0.25245,0.410277 0.25245,0.410277 0.0986,0.586876 0.0986,0.586875 -0.13239,0.878693 -0.13238,0.878692 -0.0434,0.07016 -0.0434,0.07016 -0.0822,1.149973 -0.0822,1.149972 -0.20281,0.400227 -0.20281,0.400228 -0.30781,0.146781 -0.3078,0.146781 -0.0606,-0.0019 -0.0606,-0.0019 -0.36329,-0.164882 z m -6.83688,-0.752545 -0.34217,-0.155426 -0.23241,-0.276197 -0.2324,-0.276198 -0.13059,-0.252526 -0.13059,-0.252526 -0.11942,-0.393491 -0.11942,-0.393491 -9.2e-4,-0.756435 -9.1e-4,-0.756435 -0.16206,-0.344232 -0.16206,-0.344231 -0.19351,-0.423333 -0.19352,-0.423333 -2.5e-4,-0.846667 -2.6e-4,-0.846668 0.22483,-0.43377 0.22483,-0.433771 0.31736,-0.187244 0.31735,-0.187244 0.25004,0.05001 0.25004,0.05001 0.36795,0.301509 0.36792,0.301509 v 0.121331 0.121332 h 0.079 0.079 l 0.0581,0.1905 0.0581,0.1905 0.16939,0.377468 0.1694,0.377466 -0.0483,0.892533 -0.0483,0.892534 -0.0526,0.212893 -0.0526,0.212893 0.15422,0.173984 0.15423,0.173983 0.14817,0.05497 0.14816,0.05497 v 0.122602 0.122602 l 0.0884,0.02946 0.0884,0.02946 0.13187,0.63376 0.13188,0.63376 -0.0481,0.411913 -0.0481,0.411913 -0.17212,0.355548 -0.17212,0.355549 -0.29925,0.142705 -0.29926,0.142705 -0.18763,-0.0019 -0.18762,-0.0019 -0.34217,-0.155426 z"
         id="path1049" />
      <text
         xml:space="preserve"
         style="font-size:12.7px;line-height:1.25;font-family:FreeSans;-inkscape-font-specification:FreeSans;text-align:center;letter-spacing:0.79375px;text-anchor:middle;fill:#ffffff;stroke-width:0.583405;stroke-linecap:round;stroke-dashoffset:9.97795"
         x="363.7388"
         y="-4.8973041"
         id="text1107"
         inkscape:export-xdpi="107.26374"
         inkscape:export-ydpi="107.26374"><tspan
           sodipodi:role="line"
           x="364.13568"
           y="-4.8973041"
           style="font-style:normal;font-variant:normal;font-weight:normal;font-stretch:normal;font-family:ChunkFive;-inkscape-font-specification:ChunkFive;fill:#ffffff;stroke-width:0.583405"
           id="tspan1105">IAN</tspan></text>
      <text
         xml:space="preserve"
         style="font-size:12.7px;line-height:1.25;font-family:FreeSans;-inkscape-font-specification:FreeSans;text-align:center;letter-spacing:0.79375px;text-anchor:middle;fill:#ffffff;stroke-width:0.583405;stroke-linecap:round;stroke-dashoffset:9.97795"
         x="455.94226"
         y="-4.8782539"
         id="text1111"
         inkscape:export-xdpi="107.26374"
         inkscape:export-ydpi="107.26374"><tspan
           sodipodi:role="line"
           x="456.33914"
           y="-4.8782539"
           style="font-style:normal;font-variant:normal;font-weight:normal;font-stretch:normal;font-family:ChunkFive;-inkscape-font-specification:ChunkFive;fill:#ffffff;stroke-width:0.583405"
           id="tspan1109">HANDS</tspan></text>
    </g>
    <text
       xml:space="preserve"
       id="text1137"
       style="font-style:normal;font-variant:normal;font-weight:normal;font-stretch:normal;font-size:12.7px;line-height:1.25;font-family:ChunkFive;-inkscape-font-specification:ChunkFive;text-align:center;white-space:pre;shape-inside:url(#rect1139);fill:#000000;stroke-width:1;stroke-linecap:round;stroke-dashoffset:2.64;" />
    <rect
       style="fill:#000000;stroke-width:0.999999;stroke-linecap:round;stroke-dashoffset:9.97795"
       id="rect1157"
       width="255.12595"
       height="143.50835"
       x="873.10767"
       y="289.84222"
       inkscape:export-xdpi="88.49659"
       inkscape:export-ydpi="88.49659" />
    <text
       xml:space="preserve"
       style="font-size:12.7px;line-height:1.25;font-family:FreeSans;-inkscape-font-specification:FreeSans;text-align:center;letter-spacing:0.79375px;text-anchor:middle;white-space:pre;inline-size:106.201;fill:#ffffff;stroke-width:0.422286;stroke-linecap:round;stroke-dashoffset:9.97795"
       x="88.757698"
       y="175.82562"
       id="text851"
       transform="matrix(2.3680647,0,0,2.3680647,780.28129,-63.762303)"
       inkscape:export-xdpi="88.49659"
       inkscape:export-ydpi="88.49659"><tspan
         x="88.757698"
         y="175.82562"><tspan
           style="font-style:normal;font-variant:normal;font-weight:normal;font-stretch:normal;font-family:ChunkFive;-inkscape-font-specification:ChunkFive;fill:#ffffff;stroke-width:0.422286">YOUR
</tspan></tspan><tspan
         x="88.757698"
         y="192.33562"><tspan
           style="font-style:normal;font-variant:normal;font-weight:normal;font-stretch:normal;font-family:ChunkFive;-inkscape-font-specification:ChunkFive;fill:#ffffff;stroke-width:0.422286">     FACE</tspan></tspan></text>
    <text
       xml:space="preserve"
       style="font-size:23.5343px;line-height:1.25;font-family:FreeSans;-inkscape-font-specification:FreeSans;text-align:center;letter-spacing:1.47089px;text-anchor:middle;fill:#ffffff;stroke-width:1;stroke-linecap:round;stroke-dashoffset:9.97795"
       x="705.85718"
       y="379.98953"
       id="text859"
       inkscape:export-xdpi="88.49659"
       inkscape:export-ydpi="88.49659"><tspan
         sodipodi:role="line"
         id="tspan857"
         x="706.59265"
         y="379.98953"
         style="font-style:normal;font-variant:normal;font-weight:normal;font-stretch:normal;font-family:ChunkFive;-inkscape-font-specification:ChunkFive;fill:#ffffff;stroke-width:1">. . .</tspan></text>
    <text
       xml:space="preserve"
       style="font-size:29.5726px;line-height:1.25;font-family:FreeSans;-inkscape-font-specification:FreeSans;text-align:center;letter-spacing:1.84829px;text-anchor:middle;fill:#ffffff;stroke-width:1;stroke-linecap:round;stroke-dashoffset:9.97795"
       x="1000.9959"
       y="188.75095"
       id="text1169"
       inkscape:export-xdpi="88.496597"
       inkscape:export-ydpi="88.496597"><tspan
         sodipodi:role="line"
         x="1001.92"
         y="188.75095"
         style="font-style:normal;font-variant:normal;font-weight:normal;font-stretch:normal;font-family:ChunkFive;-inkscape-font-specification:ChunkFive;fill:#ffffff;stroke-width:1"
         id="tspan1167">THANK YOU!</tspan></text>
    <g
       id="g909"
       inkscape:export-xdpi="88.496597"
       inkscape:export-ydpi="88.496597">
      <text
         xml:space="preserve"
         style="font-style:normal;font-variant:normal;font-weight:normal;font-stretch:normal;font-size:20.6922px;line-height:1.25;font-family:ChunkFive;-inkscape-font-specification:ChunkFive;text-align:center;text-anchor:middle;fill:#ffffff;stroke-width:0.999999;stroke-linecap:round;stroke-dashoffset:9.97795"
         x="227.40736"
         y="387.86676"
         id="text1079"
         transform="rotate(-35.921296)"><tspan
           sodipodi:role="line"
           id="tspan1077"
           x="227.40736"
           y="387.86676"
           style="stroke-width:0.999999">FOREVER</tspan></text>
      <path
         style="fill:#ffffff;stroke-width:0.999995"
         d="m 324.0614,188.94018 -1.13861,0.13345 -1.10172,-0.0253 -1.10171,-0.0253 -1.01355,-0.16527 -1.01355,-0.16529 -0.79856,-0.19048 -0.79855,-0.19051 -1.59068,-0.73098 -1.59067,-0.73101 -1.25129,-0.92582 -1.25131,-0.9258 -0.96582,-1 -0.96582,-0.99999 -0.7944,-1.18625 -0.79441,-1.18627 -0.7539,-1.92879 -0.75389,-1.92878 -0.22685,-1.56215 -0.22685,-1.56216 0.0782,-1.66627 0.0782,-1.66628 0.4197,-1.61314 0.41968,-1.61314 0.81427,-1.55586 0.81426,-1.55589 0.55352,-0.73866 0.55356,-0.73867 0.66102,-0.73195 0.66106,-0.73195 0.90741,-0.74915 0.9074,-0.74916 1.07334,-0.65309 1.07333,-0.65311 2.08709,-0.7198 2.0871,-0.71981 0.55134,0.17691 0.55132,0.17692 0.26874,0.62819 0.26874,0.6282 -0.24275,0.43777 -0.24276,0.43779 -2.14049,0.74479 -2.14049,0.74479 -1.04188,0.68366 -1.04186,0.68366 -0.84768,0.79216 -0.84764,0.79215 -0.79924,1.05443 -0.79924,1.05443 -0.65425,1.39815 -0.65428,1.39814 -0.28159,1.30296 -0.28159,1.30296 0.004,1.72942 0.004,1.72941 0.59975,1.99541 0.59975,1.99541 0.81189,1.25735 0.81191,1.25737 1.23038,1.21961 1.23037,1.21961 0.60071,0.3415 0.60067,0.3415 0.57688,0.38186 0.57688,0.38187 1.06904,0.36349 1.06903,0.3635 1.18005,0.25488 1.18007,0.25488 1.44298,-0.0331 1.44299,-0.0331 1.34656,-0.27885 1.34657,-0.27887 1.49352,-0.71734 1.49349,-0.71734 1.01108,-0.8064 1.01107,-0.8064 0.87153,-1.01854 0.87154,-1.01854 0.74707,-1.3672 0.74709,-1.36719 0.35251,-1.11071 0.35251,-1.11073 0.14637,-1.40414 0.14638,-1.40416 -0.16811,-1.47104 -0.16813,-1.47107 -0.12158,-0.0596 -0.12161,-0.0597 -6.39372,2.18243 -6.39373,2.18243 -0.68178,-0.18383 -0.68176,-0.18386 -0.4319,-0.57133 -0.43187,-0.57137 -0.0359,-0.43201 -0.0359,-0.43205 1.04204,-4.74236 1.04205,-4.74236 0.41582,-1.9637 0.41584,-1.9637 1.22462,-5.48557 1.2246,-5.48558 -1.1198,-1.29074 -1.11981,-1.29074 -0.86893,-0.86376 -0.86892,-0.86376 -2.15245,-0.16825 -2.15247,-0.16827 -0.37349,-0.16016 -0.37348,-0.16018 -0.15846,-0.46421 -0.15845,-0.4642 0.21494,-0.43772 0.21494,-0.43772 0.4474,-0.15694 0.44743,-0.15696 5.37566,-1.82541 5.37567,-1.82542 0.27677,0.10537 0.27677,0.10539 0.15344,0.44953 0.15345,0.44954 -0.14892,0.2309 -0.14889,0.23088 -2.27931,1.72844 -2.27929,1.72845 0.0366,0.10736 0.0367,0.10736 1.53473,1.70939 1.53474,1.7094 13.90542,-4.74647 13.90544,-4.74647 0.52906,0.22931 0.52907,0.22931 2.09739,2.56326 2.09741,2.56325 3.71004,4.47219 3.71005,4.47217 0.87328,1.06825 0.87326,1.06824 1.27447,1.54911 1.27447,1.54912 0.096,0.28126 0.096,0.28129 -0.19142,0.54533 -0.19142,0.54536 -0.60068,0.20292 -0.60068,0.20292 -0.22046,-0.0586 -0.22044,-0.0586 -0.31385,-0.29665 -0.31386,-0.29666 -4.0682,-4.94811 -4.06822,-4.94812 -0.18088,-0.0925 -0.18089,-0.0925 -0.74716,0.93502 -0.74716,0.935 -0.34885,0.57913 -0.34886,0.57912 0.0956,0.13374 0.0956,0.13375 -0.19018,-0.0434 -0.1902,-0.0434 -0.48502,1.30793 -0.48506,1.30792 -0.22698,1.71708 -0.22699,1.71707 0.12648,1.49267 0.12644,1.49267 0.72698,1.85956 0.72698,1.85953 0.59793,0.88899 0.59789,0.88897 1.22158,1.22261 1.22158,1.22262 1.72243,0.92567 1.72245,0.92565 1.18339,0.3245 1.18338,0.32446 1.29405,0.0951 1.29406,0.0951 1.19955,-0.11294 1.19955,-0.11296 1.71324,-0.58479 1.71323,-0.5848 1.00997,-0.6389 1.00997,-0.63891 0.87525,-0.77636 0.87525,-0.77635 0.83584,-1.08412 0.83584,-1.08415 0.66415,-1.45968 0.66414,-1.45969 0.25197,-0.96486 0.25198,-0.96485 0.0872,-1.33555 0.0872,-1.33554 -0.19192,-1.47553 -0.1919,-1.47555 -0.64876,-1.60778 -0.64876,-1.60777 -0.74712,-1.02022 -0.74713,-1.02021 -0.73197,-0.75214 -0.73196,-0.75211 -1.0577,-0.77328 -1.05767,-0.77327 -1.41883,-0.62142 -1.4188,-0.62142 -1.14156,-0.25162 -1.14157,-0.25162 -1.51331,-0.0318 -1.51333,-0.0318 -1.93785,0.46753 -1.93784,0.46753 -0.50166,-0.26878 -0.50162,-0.26878 -0.1398,-0.40956 -0.1398,-0.40954 0.0601,-0.3667 0.0601,-0.36669 0.59654,-0.40112 0.59653,-0.40112 1.59191,-0.35246 1.59193,-0.35245 1.50081,-0.0374 1.50083,-0.0374 1.3099,0.17639 1.30991,0.1764 0.93341,0.25802 0.93341,0.258 1.37577,0.6339 1.37578,0.6339 1.02814,0.74212 1.02814,0.74212 0.82901,0.75548 0.82901,0.75547 0.96758,1.27285 0.9676,1.27282 0.66687,1.307 0.66688,1.30701 0.43545,1.59591 0.43544,1.59591 0.1039,1.35753 0.10394,1.35753 -0.0943,1.28308 -0.0943,1.28309 -0.36323,1.48799 -0.36325,1.48799 -0.7975,1.59808 -0.79752,1.59807 -1.04769,1.32933 -1.04769,1.32933 -1.13545,0.94322 -1.13547,0.94321 -1.16918,0.68843 -1.16922,0.68845 -1.87261,0.63919 -1.87261,0.6392 -1.1946,0.14599 -1.19462,0.14599 -1.37023,-0.0198 -1.37023,-0.0197 -1.61566,-0.34752 -1.61567,-0.34751 -1.71904,-0.77992 -1.71904,-0.77996 -1.16286,-0.90121 -1.16286,-0.90125 -0.96474,-1.0221 -0.96474,-1.02208 -0.81854,-1.2065 -0.81857,-1.20652 -0.82786,-2.45008 -0.82785,-2.45007 -0.10029,-1.51416 -0.10031,-1.51418 0.14166,-1.35873 0.14163,-1.35874 0.30446,-1.15838 0.30447,-1.15836 0.60468,-1.34283 0.60468,-1.34282 0.81405,-1.17221 0.81403,-1.17225 0.57414,-0.5863 0.57413,-0.58628 -0.0498,-0.14591 -0.0498,-0.14591 -0.97714,-1.18498 -0.97714,-1.18498 -0.23572,-0.15331 -0.23573,-0.15335 -0.10487,0.0874 -0.10486,0.0874 -1.17993,2.87327 -1.17994,2.87329 -1.25298,2.96702 -1.25297,2.96701 -0.30299,0.7471 -0.30299,0.74709 -0.54458,1.34 -0.54458,1.33999 -0.32906,0.77393 -0.32904,0.77393 -0.70314,1.69934 -0.70314,1.69932 0.37936,1.23492 0.37937,1.23492 -0.17935,1.03021 -0.17937,1.03018 -0.38068,0.66281 -0.38065,0.66281 -0.56352,0.60249 -0.56353,0.60248 -1.38689,0.47348 -1.3869,0.47348 -0.92702,-0.18963 -0.92704,-0.18966 -0.76671,-0.3905 -0.76671,-0.39051 -0.51777,-0.62256 -0.51778,-0.62258 -0.71719,0.24481 -0.71719,0.2448 0.0136,0.22309 0.0136,0.22307 0.222,1.25288 0.22201,1.25287 -0.0527,1.51309 -0.0527,1.51306 -0.3153,1.54285 -0.3153,1.54282 -0.859,1.78897 -0.859,1.78896 -0.74389,0.9871 -0.74389,0.9871 -0.81208,0.82319 -0.81207,0.82316 -0.94424,0.70286 -0.94424,0.70285 -0.90963,0.50196 -0.90965,0.50196 -1.9732,0.65916 -1.97321,0.65917 z m 21.38547,-21.99128 0.40213,-0.53882 0.10986,-0.52939 0.10988,-0.52938 -0.21482,-0.62728 -0.21479,-0.62726 -0.49682,-0.41367 -0.49682,-0.41363 -0.57484,-0.0859 -0.57479,-0.0859 -0.58729,0.20047 -0.58729,0.20046 -0.38343,0.39975 -0.38345,0.39974 -0.15316,0.67025 -0.15315,0.67028 0.20963,0.61414 0.20964,0.61415 0.52973,0.43567 0.52971,0.43566 0.5142,0.0875 0.51421,0.0875 0.64484,-0.21271 0.64483,-0.21271 0.40213,-0.5388 z m -6.88655,-1.74799 -0.007,-0.65887 0.39003,-0.8834 0.39004,-0.88338 -5.41115,-5.98034 -5.41116,-5.98034 -0.32102,-0.39141 -0.32098,-0.39142 -0.13224,0.0451 -0.13222,0.0451 -0.76534,3.46481 -0.7653,3.46482 0.39273,0.11382 0.39274,0.11381 1.02536,0.36267 1.02539,0.36265 1.26719,0.73201 1.2672,0.73202 0.92712,0.74281 0.92713,0.74281 0.86096,0.95962 0.86095,0.95961 0.11872,0.34783 0.11873,0.34782 -0.31416,0.63973 -0.31412,0.63976 -0.30257,0.10328 -0.30259,0.10328 -0.43429,-0.12585 -0.43426,-0.12586 -1.45765,-1.45822 -1.45766,-1.45822 -1.76428,-0.86945 -1.76429,-0.86944 -0.62757,-0.17771 -0.62757,-0.17773 -0.79389,3.68129 -0.79391,3.6813 -0.3929,1.75204 -0.39287,1.75205 0.16397,0.19651 0.16397,0.19649 7.57768,-2.59607 7.57768,-2.59607 -0.007,-0.65886 z m 8.86584,-8.18142 1.52545,-3.70879 0.0752,-0.11676 0.0752,-0.11676 0.74234,-1.78825 0.74236,-1.78824 1.98021,-4.78857 1.98021,-4.78854 0.0145,-0.23498 0.0146,-0.23502 -0.28423,-0.17392 -0.28424,-0.17393 -12.29899,4.19814 -12.29905,4.19815 0.038,0.12368 0.038,0.12369 5.93772,6.58107 5.9377,6.58107 0.77,-0.26283 0.76999,-0.26283 0.9939,0.0289 0.9939,0.0289 0.40741,0.22592 0.40739,0.22591 0.0978,-0.0833 0.0978,-0.0833 z m 11.07976,-24.11922 -0.48491,-0.31447 -0.10127,-0.29667 -0.10125,-0.29664 0.048,-0.43488 0.048,-0.43487 0.39462,-0.49903 0.3946,-0.49906 -0.006,-0.52189 -0.006,-0.52188 -0.45351,-0.46406 -0.45351,-0.46404 -0.47382,-0.0163 -0.47386,-0.0163 -2.75356,0.9399 -2.75358,0.9399 -0.041,0.17949 -0.041,0.17946 1.09075,1.3122 1.09075,1.31224 0.006,0.5885 0.006,0.58855 -0.39267,0.34553 -0.39265,0.34551 -0.48029,0.04 -0.48026,0.04 -0.33933,-0.2717 -0.33931,-0.27168 -1.6395,-1.99087 -1.63945,-1.99086 -0.19201,-0.55013 -0.19201,-0.55014 0.31761,-0.54026 0.31763,-0.54026 4.04043,-1.37916 4.04042,-1.37915 0.94187,-0.0379 0.94185,-0.0379 0.85667,0.36803 0.85666,0.36804 0.56818,0.5472 0.56818,0.54719 0.34771,0.97438 0.3477,0.97437 -0.14268,1.11436 -0.14268,1.11434 -0.5847,0.728 -0.58472,0.72796 -0.52728,0.17998 -0.52729,0.17999 -0.48493,-0.31449 z"
         id="path1103"
         sodipodi:nodetypes="cccccccccccccccccccccccccccccccccccccccccccccccccccccccccccccccccccccccccccccccccccccccccccccccccccccccccccccccccccccccccccccccccccccccccccccccccccccccccccccccccccccccccccccccccccccccccccccccccccccccccccccccccccccccccccccccccccccccccccccccccccccccccccccccccccccccccccccccccccccccccccccccccccccccccccccccccccccccccccccccccccccccccccccccccccccccccccccccccccccccccccccccccccccccccccccccccccccccccccccccccccccccccccccccccccccccccccccccccccccccccccccccccccccccccccccccccccccccccccccccccccccccccccccccccccc" />
      <path
         style="fill:#ffffff;stroke-width:1"
         d="m 481.45052,235.00932 c -1.89586,-0.50018 -3.42223,-1.77634 -4.29775,-3.59324 l -0.50838,-1.05499 -1.67925,-0.0643 c -0.92359,-0.0354 -2.46096,-0.18286 -3.4164,-0.32774 -2.69145,-0.4081 -4.40689,-0.35688 -7.84499,0.23426 -1.51214,0.26 -2.94529,0.47352 -3.18479,0.4745 -0.54336,0.002 -0.58814,0.0351 -1.0595,0.78023 -1.20682,1.90754 -3.58516,2.93049 -6.44037,2.77007 -2.0449,-0.11489 -3.59271,-0.54523 -6.06926,-1.68745 -2.41766,-1.11505 -3.22637,-1.32124 -7.0752,-1.80385 -3.57141,-0.44782 -4.71176,-0.78246 -5.59653,-1.64234 -0.80142,-0.77885 -0.94846,-1.19515 -0.93442,-2.64551 0.0104,-1.07808 0.0683,-1.45584 0.37639,-2.4573 0.42497,-1.38139 0.4594,-2.16422 0.1783,-4.05353 -0.11106,-0.74643 -0.16742,-1.69086 -0.14017,-2.34865 0.0407,-0.98292 0.0874,-1.17829 0.4382,-1.83282 0.64403,-1.20176 1.37152,-1.69441 3.98104,-2.69597 1.2137,-0.46583 1.69747,-0.85215 2.64778,-2.11446 0.39018,-0.51828 0.94175,-1.21884 1.22572,-1.55679 l 0.51629,-0.61447 -0.0807,-1.24487 c -0.38125,-5.88238 2.90808,-13.46987 9.42005,-21.72925 0.80296,-1.01842 1.77868,-2.38225 2.16827,-3.03074 1.9981,-3.32589 2.83274,-6.98044 2.55888,-11.20435 -0.18207,-2.80815 -0.17275,-8.27295 0.016,-9.39149 0.54847,-3.25021 1.77794,-5.86055 3.46987,-7.36705 1.44442,-1.28611 3.2572,-2.15063 5.51733,-2.63122 1.22617,-0.26073 1.66876,-0.29659 3.65349,-0.29598 1.89295,4.4e-4 2.43014,0.0406 3.32054,0.24739 4.55829,1.05862 7.29325,4.17159 8.47309,9.64419 0.45427,2.10711 0.61443,4.15315 0.70686,9.03054 0.0801,4.22405 0.11291,4.77868 0.33053,5.5792 0.69818,2.56829 1.84431,4.49436 5.12198,8.60755 2.19913,2.7597 2.84052,3.619 3.91125,5.23993 2.67871,4.05525 4.21019,7.70408 4.82449,11.49466 0.40159,2.47798 0.13314,6.1655 -0.58512,8.03725 -0.0444,0.1157 0.0859,0.24801 0.4041,0.41035 1.39059,0.70942 1.94771,1.63148 2.62797,4.34942 0.54673,2.18443 0.67955,2.47866 1.67648,3.71394 2.10093,2.60323 2.47154,4.45026 1.19273,5.94426 -0.58569,0.68425 -1.4418,1.23227 -3.63232,2.32516 -3.61246,1.8023 -4.10639,2.14123 -6.25283,4.29058 -2.62215,2.6257 -4.07301,3.5644 -6.44792,4.17181 -1.05334,0.26939 -2.58285,0.28816 -3.51176,0.0431 z m 3.15864,-2.09014 c 0.45664,-0.10385 1.06625,-0.28987 1.35469,-0.41335 0.67067,-0.28713 2.29109,-1.50726 3.75217,-2.82527 2.93645,-2.64893 3.51538,-3.06329 6.61611,-4.73542 2.4491,-1.32074 3.44329,-1.99737 3.64293,-2.47935 0.12624,-0.30479 0.10911,-0.42169 -0.14093,-0.96137 -0.15656,-0.33791 -0.58731,-1.03129 -0.95721,-1.54086 -1.04309,-1.43693 -1.60505,-2.6015 -2.35375,-4.87782 -0.93394,-2.8395 -1.17612,-3.17576 -2.39871,-3.33058 -0.99618,-0.12616 -1.7273,0.0852 -2.58476,0.74712 -2.38985,1.84495 -5.42984,2.27129 -7.10196,0.99603 -0.5669,-0.43235 -1.6507,-1.98466 -1.84993,-2.64964 -0.0735,-0.24524 -0.19005,-0.42726 -0.25906,-0.40451 -0.23372,0.0771 -0.75305,1.29234 -0.92538,2.16545 -0.0943,0.47772 -0.27922,1.89492 -0.41094,3.14934 -0.3243,3.08827 -0.60791,4.69285 -1.33676,7.56311 -0.85952,3.38479 -1.02268,4.24695 -1.03009,5.44308 -0.005,0.93039 0.0305,1.11686 0.33799,1.73684 0.43512,0.87736 1.81031,2.30805 2.3739,2.4697 0.63573,0.18233 2.36094,0.15465 3.27169,-0.0525 z m -29.04224,-0.98438 c 1.36779,-0.42826 2.26391,-1.37295 2.73204,-2.88013 0.27858,-0.89686 0.23594,-1.23575 -0.30221,-2.40181 -0.48288,-1.04631 -1.37003,-2.41476 -2.87258,-4.431 -1.51997,-2.03962 -2.95251,-4.19666 -4.07637,-6.13795 -2.61434,-4.51582 -3.15522,-5.30764 -4.01398,-5.87627 -0.41543,-0.27509 -0.62234,-0.32511 -1.48642,-0.35937 l -1.00381,-0.0398 -0.97371,1.07952 c -2.73108,3.02787 -2.95551,3.20953 -5.21338,4.21986 -0.78926,0.35317 -1.62655,0.77376 -1.86064,0.93464 -0.80869,0.55578 -0.92389,1.31123 -0.61558,4.03686 0.23426,2.071 0.21772,2.59451 -0.12624,3.99546 -0.35008,1.42583 -0.47378,2.81327 -0.29228,3.27781 0.23182,0.59328 1.00233,0.824 4.88691,1.46333 3.9688,0.6532 4.87714,0.88421 7.28525,1.85287 4.00374,1.6105 5.87757,1.90953 7.933,1.26596 z m 14.18676,-7.28875 c 1.35131,-0.20685 4.44705,-1.36329 5.55817,-2.0763 1.0773,-0.6913 1.31092,-1.53476 2.08511,-7.52812 0.19336,-1.49685 0.45063,-3.11845 0.57172,-3.60356 0.48227,-1.93217 1.73284,-3.7974 4.6796,-6.97965 l 1.02404,-1.10589 -0.66023,-2.00159 c -0.81911,-2.48324 -1.89403,-5.158 -3.87563,-9.64389 -1.70957,-3.87007 -3.42627,-8.07505 -4.16978,-10.21369 -0.46521,-1.33814 -0.50387,-1.40584 -0.74942,-1.31248 -0.1424,0.0541 -1.03558,0.48685 -1.98486,0.96158 -2.52061,1.26055 -4.28048,2.01608 -5.20026,2.23254 -1.72529,0.40602 -3.76005,-0.0598 -5.6274,-1.28837 -0.52564,-0.34581 -0.96402,-0.616 -0.97419,-0.60041 -0.0102,0.0156 -0.19007,0.70583 -0.39977,1.53387 -0.61109,2.41299 -1.49441,4.76357 -4.09092,10.88617 -2.37334,5.59635 -2.82936,6.99044 -3.44164,10.52132 -0.25993,1.49894 -0.57942,2.53495 -0.88633,2.87409 -0.11714,0.12943 -0.15356,0.25618 -0.0898,0.31247 0.059,0.0521 1.27986,0.99847 2.71301,2.10308 3.80563,2.93318 5.49377,4.75383 6.44024,6.94575 0.28609,0.66257 0.32561,0.89847 0.32986,1.96878 0.005,1.13617 -0.0178,1.25675 -0.33894,1.83661 -0.18906,0.34133 -0.55386,0.80157 -0.81067,1.02276 l -0.46693,0.40217 0.64974,0.60745 c 1.00679,0.94127 3.20301,1.97638 4.82314,2.27321 0.65042,0.11917 3.81932,0.0363 4.89214,-0.1279 z m 18.18221,-20.89593 c 0,-0.27644 -0.009,-0.28036 -0.2071,-0.0868 -0.19962,0.19536 -0.16228,0.27253 0.17815,0.36824 0.0159,0.005 0.029,-0.12214 0.029,-0.28139 z M 451.2052,192.98328 c 0.72214,-1.48951 1.29353,-2.8032 1.26976,-2.9193 -0.0523,-0.2555 -1.2891,1.78037 -2.36935,3.90018 -0.67422,1.32304 -0.72072,1.46009 -0.54027,1.59239 0.10859,0.0796 0.22656,0.14255 0.26216,0.13985 0.0356,-0.002 0.65556,-1.22361 1.3777,-2.71312 z m 35.01997,0.12665 c 0.1837,-0.13951 0.1423,-0.23682 -0.50327,-1.18338 -0.97978,-1.43653 -2.70013,-3.40547 -2.97552,-3.40547 -0.2989,0 -0.10567,0.37807 0.57594,1.12684 0.90506,0.99421 1.61867,1.95795 2.13968,2.88959 0.22508,0.40249 0.44384,0.73014 0.48613,0.72811 0.0423,-0.002 0.16696,-0.0721 0.27704,-0.15569 z m -18.35311,-12.55314 c 0.58935,-0.26003 1.52741,-0.73289 2.08459,-1.05078 0.55717,-0.3179 1.37457,-0.72205 1.81645,-0.89812 1.22615,-0.48855 2.38905,-1.32017 2.91602,-2.0853 0.39361,-0.57151 0.44973,-0.73548 0.44973,-1.31384 0,-1.18045 -0.50284,-1.59985 -3.14035,-2.61921 -0.7173,-0.27724 -1.97183,-0.84601 -2.78784,-1.26394 -2.21002,-1.13187 -3.49086,-1.35401 -5.03263,-0.87283 -0.8516,0.26579 -1.27816,0.53676 -2.77421,1.76235 -0.59877,0.49052 -1.5056,1.22122 -2.01516,1.62376 -0.75512,0.59653 -0.95568,0.82374 -1.08437,1.2285 -0.30909,0.97215 0.31237,1.93288 2.04834,3.16662 0.53636,0.38119 1.32061,0.97851 1.74277,1.32736 0.42216,0.34885 1.18449,0.84453 1.69405,1.10149 0.91546,0.46166 0.93889,0.46663 1.96877,0.41698 0.90632,-0.0437 1.18209,-0.11193 2.11384,-0.52304 z m -4.48794,-1.75054 c -1.28389,-0.41509 -2.56652,-1.22089 -3.75846,-2.36122 -0.66861,-0.63965 -0.75815,-0.77634 -0.75815,-1.15744 0,-0.38079 0.0335,-0.43212 0.28234,-0.43212 0.20197,0 0.38889,0.14839 0.65678,0.52142 0.50871,0.70837 1.94326,1.8314 2.99843,2.34733 0.80052,0.3914 0.96425,0.42816 2.08961,0.46921 1.12658,0.0411 1.30576,0.0162 2.31621,-0.32166 1.83052,-0.61207 4.22621,-2.04506 5.31601,-3.17979 0.49605,-0.5165 1.04853,-0.58628 1.04853,-0.13245 0,0.93062 -4.03992,3.51594 -6.60481,4.22671 -1.09839,0.30438 -2.67964,0.3132 -3.58649,0.02 z m -0.28103,-6.68036 c -0.39338,-0.39338 0.32079,-0.90857 1.16366,-0.83946 0.34817,0.0286 0.45676,0.0897 0.48286,0.27202 0.0256,0.17885 -0.0931,0.29678 -0.49529,0.4922 -0.62546,0.30388 -0.90436,0.32211 -1.15123,0.0753 z m 3.81324,-0.096 c -0.52485,-0.2933 -0.58682,-0.52232 -0.19427,-0.71802 0.58359,-0.29096 1.73371,0.29155 1.45489,0.73686 -0.18086,0.28888 -0.72452,0.28075 -1.26062,-0.0189 z m -6.31166,-0.13947 c 0,-0.0168 -0.15557,-0.28158 -0.34571,-0.58837 -0.74788,-1.20668 -0.7077,-2.97972 0.0881,-3.88734 0.23723,-0.27056 0.85084,-0.25805 1.21029,0.0247 0.40181,0.31607 0.78066,1.25982 0.86401,2.15233 0.0682,0.73068 0.077,0.74722 0.3138,0.59438 0.13399,-0.0865 0.49117,-0.25088 0.79372,-0.36537 l 0.5501,-0.20816 -0.002,-0.76599 c -0.005,-2.54086 -1.40822,-4.64562 -3.09569,-4.64562 -0.34102,0 -0.76782,0.0764 -0.94845,0.16983 -0.51247,0.26501 -1.24837,1.1787 -1.52845,1.89771 -0.30704,0.78823 -0.42684,2.76667 -0.22603,3.7329 0.15222,0.73245 0.59844,1.73979 1.00926,2.2784 l 0.28918,0.37913 0.51379,-0.36897 c 0.28258,-0.20295 0.51379,-0.38274 0.51379,-0.39956 z m 13.97203,-0.11144 c 0.50926,-0.92885 0.73587,-1.87158 0.73587,-3.0614 0,-3.03316 -1.76946,-5.32501 -4.11126,-5.32501 -1.48968,0 -2.71606,0.86379 -3.47511,2.44767 -0.49152,1.02561 -0.65659,1.80115 -0.61256,2.87774 l 0.0343,0.83863 0.98439,0.3267 c 0.54142,0.17969 1.01045,0.32918 1.04229,0.33221 0.0319,0.003 0.0654,-0.37802 0.0747,-0.84676 0.0358,-1.82154 1.12956,-3.12185 2.30071,-2.73534 0.81609,0.26933 1.3434,1.36954 1.34174,2.79951 -7.7e-4,0.94712 -0.19281,1.58312 -0.61156,2.02886 l -0.24185,0.25745 0.27634,0.11723 c 1.03724,0.44006 1.68137,0.67791 1.77562,0.65566 0.0602,-0.0142 0.27914,-0.33514 0.48639,-0.71315 z"
         id="path903" />
    </g>
  </g>
</svg>
